<svg viewBox="0 0 50 50" xmlns="http://www.w3.org/2000/svg" xmlns:xlink="http://www.w3.org/1999/xlink" version="1.1" class="jsx-2263963463 artboard-inner" style="width: 55px; height: 55px; max-height: 100%;"><g transform="translate(24.75 24.75) scale(1.4285714285714286)" id="lockup4-icon"><g fill="#232323"><g transform="translate(-17.325 -17.325) scale(0.35)" id="container"><g fill="#232323"><rect vector-effect="non-scaling-stroke" x="1" y="1" width="98" height="98" rx="10"></rect></g></g><g transform="translate(-10 -10) scale(0.0390625)" id="icon"><g fill="#FFFFFF"><path d="M235.96 240.16v31.68L256 285.38l20.04-13.54v-31.68L256 226.63l-20.04 13.53z"></path><path d="M456.29 318.88l-34.61 19.9-18.63-9.27 19.45-11.18a12.83 12.83 0 0 0-12.79-22.24l-34.26 19.7L349.64 303v-93.71l25.81-12.84 34.26 19.69a12.83 12.83 0 0 0 12.79-22.24l-19.45-11.18 18.63-9.26 34.61 19.89a12.83 12.83 0 0 0 12.79-22.24l-19.79-11.38 15.25-7.58a12.83 12.83 0 1 0-11.42-23l-15.06 7.49 3.15-22.5a12.83 12.83 0 1 0-25.41-3.56l-5.58 39.91-18.79 9.34 3.2-22.9a12.83 12.83 0 1 0-25.41-3.56l-5.64 40.31-25.86 12.86L268.83 140v-11.83l33.39-22.55a12.83 12.83 0 0 0-14.36-21.26l-19 12.85v-20.9l33.39-22.55a12.83 12.83 0 1 0-14.39-21.26l-19 12.85v-17a12.83 12.83 0 1 0-25.66 0v16.79L224.45 32.5a12.83 12.83 0 0 0-14.36 21.26l33.08 22.34V97l-18.72-12.64a12.83 12.83 0 0 0-14.36 21.26L243.17 128v12l-68.9 46.53-25.85-12.83-5.64-40.31a12.83 12.83 0 1 0-25.41 3.61l3.2 22.9-18.79-9.34-5.58-39.96a12.83 12.83 0 1 0-25.41 3.56l3.15 22.5-15.06-7.49a12.83 12.83 0 0 0-11.42 23l15.25 7.58-19.79 11.36a12.83 12.83 0 1 0 12.79 22.24l34.6-19.89 18.69 9.26-19.5 11.18a12.83 12.83 0 1 0 12.79 22.24l34.26-19.69 25.81 12.84V303l-25.81 12.84-34.26-19.7a12.83 12.83 0 0 0-12.79 22.19l19.5 11.18-18.63 9.27-34.61-19.9a12.83 12.83 0 0 0-12.79 22.24l19.74 11.38-15.25 7.59a12.83 12.83 0 0 0 5.72 24.32 12.66 12.66 0 0 0 5.7-1.35l15.06-7.48-3.15 22.5a12.82 12.82 0 0 0 10.93 14.48 12.07 12.07 0 0 0 1.79.13 12.84 12.84 0 0 0 12.69-11.06l5.58-39.9 18.79-9.35-3.2 22.91a12.82 12.82 0 0 0 10.93 14.48 12.07 12.07 0 0 0 1.79.13 12.83 12.83 0 0 0 12.69-11.06l5.64-40.3 26.06-13 69 46.6v11.66l-33.39 22.55a12.83 12.83 0 0 0 14.36 21.26l19-12.86v20.9l-33.39 22.55a12.83 12.83 0 0 0 14.36 21.26l19-12.85v17a12.83 12.83 0 1 0 25.65 0v-16.75l18.73 12.64a12.83 12.83 0 1 0 14.36-21.26l-33.03-22.34V415l18.73 12.65a12.83 12.83 0 1 0 14.36-21.26L269.13 384v-12.23l68.39-46.19 26.06 13 5.64 40.3a12.83 12.83 0 0 0 12.69 11.06 12.07 12.07 0 0 0 1.79-.13 12.82 12.82 0 0 0 10.93-14.48l-3.2-22.91 18.79 9.35 5.58 39.9a12.83 12.83 0 0 0 12.69 11.06 12.07 12.07 0 0 0 1.79-.13 12.82 12.82 0 0 0 10.93-14.48l-3.15-22.5 15.06 7.48a12.66 12.66 0 0 0 5.7 1.35 12.83 12.83 0 0 0 5.72-24.32l-15.26-7.59 19.8-11.38a12.83 12.83 0 0 0-12.79-22.24zM308 280.34a16 16 0 0 1-7 13.26l-36 24.34a16 16 0 0 1-17.9 0L211 293.6a16 16 0 0 1-7-13.26v-48.68a16 16 0 0 1 7-13.26l36-24.34a16 16 0 0 1 17.9 0l36 24.34a16 16 0 0 1 7.1 13.26z"></path></g></g></g></g></svg>