<svg viewBox="0 0 350 350"
    xmlns="http://www.w3.org/2000/svg"
    xmlns:xlink="http://www.w3.org/1999/xlink" version="1.1">
    <g transform="translate(9.8 10) scale(3.30)">
        <g fill="#f5820b">
            <path d="M24.991 49.725a3.634 3.634 0 0 0-3.633-3.635H3.91a3.635 3.635 0 0 0 0 7.27h17.448a3.635 3.635 0 0 0 3.633-3.635zM27.255 31.847a3.638 3.638 0 0 0 5.142 0 3.633 3.633 0 0 0 0-5.14L20.061 14.369a3.636 3.636 0 0 0-5.141 5.141l12.335 12.337zM27.255 67.603L14.919 79.939a3.637 3.637 0 0 0 0 5.14 3.631 3.631 0 0 0 5.141 0l12.336-12.337a3.633 3.633 0 1 0-5.141-5.139zM50.275 24.441a3.633 3.633 0 0 0 3.634-3.634V3.359a3.635 3.635 0 1 0-7.27 0v17.448a3.635 3.635 0 0 0 3.636 3.634zM73.292 31.847L85.63 19.51a3.631 3.631 0 0 0 0-5.141 3.634 3.634 0 0 0-5.139 0L68.153 26.706a3.632 3.632 0 0 0 0 5.14 3.633 3.633 0 0 0 5.139.001zM96.642 46.09H79.193a3.635 3.635 0 1 0 0 7.27h17.448a3.635 3.635 0 0 0 .001-7.27zM50.275 75.008a3.635 3.635 0 0 0-3.636 3.635v17.448c0 2.008 1.627 3.634 3.636 3.634s3.634-1.626 3.634-3.634V78.643a3.634 3.634 0 0 0-3.634-3.635zM73.292 67.603a3.634 3.634 0 1 0-5.139 5.14L80.491 85.08a3.629 3.629 0 0 0 5.139 0 3.63 3.63 0 0 0 0-5.14L73.292 67.603zM71.842 49.725a21.357 21.357 0 0 0-1.683-8.333 21.49 21.49 0 0 0-7.752-9.415 21.331 21.331 0 0 0-11.971-3.657 21.34 21.34 0 0 0-8.333 1.684 21.468 21.468 0 0 0-9.415 7.752 21.327 21.327 0 0 0-3.658 11.971 21.318 21.318 0 0 0 1.684 8.333 21.471 21.471 0 0 0 7.752 9.414 21.317 21.317 0 0 0 11.97 3.657c2.945 0 5.77-.598 8.333-1.684a21.47 21.47 0 0 0 9.417-7.752 21.319 21.319 0 0 0 3.656-11.97zM49.54 35.706a13.693 13.693 0 0 0-9.719 4.025 13.687 13.687 0 0 0-4.024 9.718 1.592 1.592 0 1 1-3.187 0c0-9.352 7.58-16.931 16.932-16.933a1.594 1.594 0 1 1-.002 3.19zm7.004 2.641a2.173 2.173 0 1 1 .002-4.346 2.173 2.173 0 0 1-.002 4.346z"></path>
        </g>
    </g>
</svg>