<svg id="Capa_1" enable-background="new 0 0 512.048 512.048" height="512" viewBox="0 0 512.048 512.048" width="512" xmlns="http://www.w3.org/2000/svg"><g><path d="m307.79 442.422h-103.533v41.523c0 11.378 9.223 20.601 20.601 20.601h62.331c11.378 0 20.601-9.223 20.601-20.601z" fill="#d8ecfe"/><path d="m254.854 504.548h-30c-11.37 0-20.6-9.22-20.6-20.6v-41.53h30v41.53c0 11.38 9.23 20.6 20.6 20.6z" fill="#b3dafe"/><path d="m318.148 442.321h-124.249c-8.578 0-15.531-6.954-15.531-15.531 0-8.578 6.954-15.531 15.531-15.531h124.249c8.578 0 15.531 6.954 15.531 15.531.001 8.578-6.953 15.531-15.531 15.531z" fill="#eaf6ff"/><path d="m223.904 442.318h-30c-8.58 0-15.54-6.95-15.54-15.53 0-4.29 1.74-8.17 4.55-10.98s6.7-4.55 10.99-4.55h30c-4.29 0-8.18 1.74-10.99 4.55s-4.55 6.69-4.55 10.98c0 8.58 6.96 15.53 15.54 15.53z" fill="#d8ecfe"/><path d="m281.904 302.758c0 14.3-11.58 25.89-25.88 25.89v75.32h-51.77v-15.16c0-9.92-5.66-19.02-14.63-23.27-52.55-24.9-88.91-78.41-88.91-140.42v-.18h51.77v.17c0 14.29 11.59 25.89 25.88 25.89 14.3 0 25.89-11.6 25.89-25.89v-.17h51.77v51.94c14.3 0 25.88 11.59 25.88 25.88z" fill="#aee69c"/><path d="m224.254 388.808v15.16h-20v-15.16c0-9.92-5.66-19.02-14.63-23.27-52.55-24.9-88.91-78.41-88.91-140.42v-.18h20v.18c0 62.01 36.36 115.52 88.91 140.42 8.97 4.25 14.63 13.35 14.63 23.27z" fill="#89daa4"/><path d="m411.334 224.938v.17c0 61.99-36.32 115.49-88.85 140.4-8.99 4.26-14.69 13.35-14.69 23.3v22.5h-51.77v-82.66c14.3 0 25.88-11.59 25.88-25.89 0-14.29-11.58-25.88-25.88-25.88v-51.94h51.77c.09-14.22 11.65-25.72 25.89-25.72 14.23 0 25.79 11.5 25.88 25.72z" fill="#8ac9fe"/><path d="m411.334 224.938h-51.77c-.09-14.22-11.65-25.72-25.88-25.72-14.24 0-25.8 11.5-25.89 25.72h-51.77v-51.6c-14.3 0-25.88-11.59-25.88-25.89s11.58-25.88 25.88-25.88v-51.77c85.72 0 155.22 69.44 155.31 155.14z" fill="#ffe177"/><path d="m230.144 147.448c0 14.3 11.58 25.89 25.88 25.89v51.6h-51.77v.17c0 14.29-11.59 25.89-25.89 25.89-14.29 0-25.88-11.6-25.88-25.89v-.17h-51.77c.09-85.94 69.37-155.14 155.31-155.14v51.77c-14.3 0-25.88 11.58-25.88 25.88z" fill="#fe646f"/><path d="m256.024 69.798v1.27c-76.44 9.75-135.23 74.71-135.31 153.87h-20c.09-85.94 69.37-155.14 155.31-155.14z" fill="#fd4755"/><g><path d="m394.718 139.803c-2.175-3.526-6.796-4.622-10.32-2.449-3.526 2.173-4.622 6.794-2.449 10.32 12.98 21.056 20.392 45.035 21.666 69.762h-37.441c-3.484-14.714-16.763-25.717-32.491-25.717-15.732 0-29.014 11.003-32.499 25.717h-37.659v-44.1c0-4.142-3.357-7.5-7.5-7.5-10.137 0-18.383-8.247-18.383-18.383s8.246-18.383 18.383-18.383c4.143 0 7.5-3.358 7.5-7.5v-44.087c37.823 1.864 72.828 17.808 99.245 45.374 3.504 3.004 7.039 3.079 10.604.226 2.99-2.866 3.092-7.614.226-10.604-30.987-32.335-72.703-50.152-117.472-50.179-.035 0-.068-.005-.103-.005-.034 0-.066.005-.1.005-39.565.024-77.655 14.315-107.262 40.247-3.116 2.729-3.43 7.468-.7 10.583 2.729 3.117 7.468 3.43 10.583.701 25.021-21.916 56.726-34.665 89.979-36.337v37.426c-14.808 3.413-25.883 16.705-25.883 32.534s11.075 29.121 25.883 32.534v37.45h-44.267c-4.143 0-7.5 3.358-7.5 7.5v.175c0 10.137-8.25 18.383-18.392 18.383-10.137 0-18.383-8.247-18.383-18.383v-.175c0-4.142-3.357-7.5-7.5-7.5h-44.069c1.479-29.389 11.426-57.162 29.002-80.734 2.476-3.321 1.791-8.02-1.529-10.496-3.319-2.475-8.02-1.791-10.496 1.529-21.01 28.176-32.136 61.786-32.177 97.203-1.499 61.858 37.975 121.211 93.198 147.378 6.282 2.977 10.342 9.45 10.342 16.492v14.95c-15.397 0-25.891 8.248-25.891 23.03 0 14.771 10.16 23.043 25.891 23.03v34.13c0 14.848 13.321 28.1 28.1 28.1h62.34c14.78 0 28.1-13.248 28.1-28.1v-34.13c17.564.014 25.897-9.32 25.891-23.03-.007-14.294-8.993-23.03-25.891-23.03v-14.95c0-7.043 4.083-13.528 10.404-16.523 56.811-26.94 92.129-84.895 93.136-147.354-.03-30.149-8.37-59.586-24.116-85.13zm-201.883 218.957c-49.19-23.308-81.702-72.349-84.415-126.325h37.372c3.348 14.896 16.682 26.058 32.573 26.058 15.896 0 29.233-11.162 32.582-26.058h37.576v44.441c0 4.142 3.357 7.5 7.5 7.5 10.137 0 18.383 8.247 18.383 18.383s-8.246 18.383-18.383 18.383c-4.143 0-7.5 3.358-7.5 7.5v75.114h-36.77v-14.95c.001-12.806-7.425-24.6-18.918-30.046zm94.359 138.288h-62.34c-9.532 0-13.569-8.485-13.1-16.001h88.539c.017 8-2.519 16.001-13.099 16.001zm30.95-62.23h-46.36c-4.143 0-7.5 3.358-7.5 7.5 0 .017.002.033.002.05s-.002.033-.002.05c0 4.142 3.357 7.5 7.5 7.5h28.51v16.129h-88.539v-16.129h27.35c4.143 0 7.5-3.358 7.5-7.5 0-.017-.002-.033-.002-.05s.002-.033.002-.05c0-4.142-3.357-7.5-7.5-7.5h-45.2c-11.88.18-12.213-16.06 0-16.06h124.24c10.379 0 11.879 16.073-.001 16.06zm1.128-76.088c-11.529 5.463-18.979 17.27-18.979 30.078v14.95h-36.77v-68.464c14.808-3.413 25.883-16.705 25.883-32.534s-11.075-29.121-25.883-32.534v-37.791h44.267c4.123 0 7.474-3.329 7.5-7.452.064-10.071 8.315-18.265 18.392-18.265 10.072 0 18.319 8.194 18.384 18.265.026 4.123 3.377 7.452 7.5 7.452h44.061c-2.716 53.959-35.204 102.988-84.355 126.295z"/><g><g><path d="m256.024 46.063c-4.143 0-7.5-3.358-7.5-7.5v-31.063c0-4.142 3.357-7.5 7.5-7.5s7.5 3.358 7.5 7.5v31.063c0 4.142-3.357 7.5-7.5 7.5z"/></g><g><path d="m360.966 74.182c-3.597-2.053-4.816-6.658-2.745-10.245l15.531-26.901c2.07-3.587 6.655-4.818 10.245-2.745 3.587 2.071 4.816 6.658 2.745 10.245l-15.531 26.901c-1.388 2.405-6.187 5.061-10.245 2.745z"/></g><g><g><path d="m437.79 151.004c-2.071-3.587-.842-8.174 2.745-10.245l26.9-15.531c3.585-2.071 8.175-.843 10.245 2.745 2.071 3.587.842 8.174-2.745 10.245l-26.9 15.531c-4.261 2.499-8.857-.338-10.245-2.745z"/></g><g><path d="m34.368 383.92c-1.92-3.67-.842-8.174 2.745-10.245l26.9-15.531c3.585-2.071 8.173-.843 10.245 2.745 2.071 3.587.842 8.174-2.745 10.245l-26.9 15.531c-4.339 2.333-8.339.899-10.245-2.745z"/></g></g><g><path d="m140.836 71.437-15.531-26.901c-2.071-3.587-.842-8.174 2.745-10.245 3.585-2.072 8.174-.843 10.245 2.745l15.531 26.901c2.071 3.587.755 8.031-2.745 10.245-4.057 2.566-8.856-.339-10.245-2.745z"/></g><g><g><path d="m64.013 153.75-26.9-15.531c-3.587-2.071-4.816-6.658-2.745-10.245 2.07-3.588 6.655-4.817 10.245-2.745l26.9 15.531c3.587 2.071 5.352 7.026 2.745 10.245-3.234 3.993-6.484 4.493-10.245 2.745z"/></g><g><path d="m467.435 386.666-26.9-15.531c-3.587-2.071-4.816-6.658-2.745-10.245 2.07-3.588 6.659-4.816 10.245-2.745l26.9 15.531c3.587 2.071 4.981 6.758 2.745 10.245-2.406 3.752-5.906 5.327-10.245 2.745z"/></g></g><g><g><path d="m38.639 263.447h-31.062c-4.143 0-7.5-3.358-7.5-7.5s3.357-7.5 7.5-7.5h31.063c4.143 0 7.5 3.358 7.5 7.5s-3.358 7.5-7.501 7.5z"/></g><g><path d="m504.471 263.447h-31.063c-4.143 0-7.5-3.358-7.5-7.5s3.357-7.5 7.5-7.5h31.063c4.143 0 7.5 3.358 7.5 7.5s-3.357 7.5-7.5 7.5z"/></g></g></g></g></g></svg>