<svg height="24" viewBox="0 0 24 24" width="24" xmlns="http://www.w3.org/2000/svg"><path d="m23.6408156 14.9046858c-1.6029207 6.4293098-8.1147393 10.3421015-14.54479911 8.7388058-6.42743456-1.6029208-10.3402263-8.1151144-8.73655549-14.54404907 1.60217064-6.43005985 8.11398919-10.34322662 14.5421738-8.7403059 6.4296848 1.60292072 10.3421015 8.11586439 8.7391808 14.54554917zm-6.3494262-4.6129913c.2389004-1.59692007-.9769791-2.45538651-2.6395312-3.0280725l.5393075-2.1632304-1.3167653-.32815995-.5250559 2.10622433c-.3461619-.08625919-.7016997-.16764286-1.0549874-.24827645l.5288064-2.1201008-1.3160152-.32815995-.5396825 2.16248032c-.2865305-.06525695-.5678105-.12976382-.8408395-.19764605l.0015001-.00675072-1.81594339-.4534233-.35028731 1.4063998s.97697906.22389884.95635186.23777532c.5333068.13313918.62969207.48605177.61356535.76583157l-.61431543 2.46438748c.03675392.009376.08438399.0228774.13688958.0438797-.04387967-.0108762-.09075967-.0228775-.13913982-.0345037l-.86109171 3.4522427c-.06525695.1620172-.23064957.4050431-.60343927.3127833.0131264.019127-.95710194-.2389005-.95710194-.2389005l-.65369462 1.5072856 1.7135575.4271705c.31878396.0798835.63119223.1635174.93872498.2422758l-.54493303 2.187983 1.31526508.32816.53968248-2.1647306c.35928829.0975104.70807539.18752 1.04936179.272279l-.5378073 2.1546045 1.3167652.3281599.5449331-2.1838576c2.2453641.4249203 3.9337939.253527 4.6444946-1.7773143.572686-1.6351741-.028503-2.5783996-1.2098788-3.1934651.8603416-.1983961 1.5084106-.7643314 1.6813041-1.9333309zm-3.0085705 4.2188243c-.4069183 1.6351742-3.1600865.751205-4.0526816.5295564l.723077-2.8986837c.8925951.2227737 3.7548999.6638207 3.3296046 2.3691273zm.4072934-4.2424518c-.3712895 1.4874084-2.6627836.7317029-3.4061128.5464332l.6555699-2.62903002c.7433291.18526973 3.1372091.53105656 2.7505429 2.08259682z" fill="#f90" fill-rule="evenodd"/></svg>