<svg viewBox="0 0 188 188" xmlns="http://www.w3.org/2000/svg"><circle cx="95" cy="95" fill="#ffc742" r="91"/><path d="m184 94a91 91 0 1 1 -178.92-23.56 94.09 94.09 0 0 0 65.21 26.34 56.51 56.51 0 0 0 19.29-3.09c14.47-5.36 24.72-18.49 31.57-32.31 4-8.16 7.24-16.82 12.6-24.19a48.77 48.77 0 0 1 16.25-14.1 90.81 90.81 0 0 1 34 70.91z" fill="#b27702" opacity=".4"/><path d="m14 96a91 91 0 0 1 86-90.86q-2.48-.14-5-.14a91 91 0 1 0 0 182q2.52 0 5-.14a91 91 0 0 1 -86-90.86z" fill="#8a7683" opacity=".5"/><path d="m174 94a91 91 0 0 1 -86 90.86q2.48.13 5 .14a91 91 0 1 0 0-182q-2.52 0-5 .14a91 91 0 0 1 86 90.86z" fill="#3f5a7c" opacity=".5"/><path d="m94 188a94 94 0 1 1 94-94 94.11 94.11 0 0 1 -94 94zm0-182a88 88 0 1 0 88 88 88.1 88.1 0 0 0 -88-88z" fill="#2e576d"/><path d="m93.44 170.49a77.5 77.5 0 1 1 77.5-77.49 77.59 77.59 0 0 1 -77.5 77.49zm0-153a75.5 75.5 0 1 0 75.5 75.51 75.59 75.59 0 0 0 -75.5-75.51z" fill="#2e576d"/><circle cx="40.44" cy="127.4" fill="#fff" r="1.42" transform="matrix(.99995393 -.00959916 .00959916 .99995393 -1.22 .39)"/><circle cx="40.48" cy="131.68" fill="#fff" r="1.42" transform="matrix(.99995393 -.00959916 .00959916 .99995393 -1.26 .39)"/><circle cx="40.52" cy="135.95" fill="#fff" r="1.42" transform="matrix(.99995393 -.00959916 .00959916 .99995393 -1.3 .39)"/><circle cx="36.44" cy="122.4" fill="#fff" r="1.42" transform="matrix(.99995393 -.00959916 .00959916 .99995393 -1.17 .35)"/><circle cx="36.48" cy="126.68" fill="#fff" r="1.42" transform="matrix(.99995393 -.00959916 .00959916 .99995393 -1.21 .35)"/><circle cx="36.52" cy="130.95" fill="#fff" r="1.42" transform="matrix(.99995393 -.00959916 .00959916 .99995393 -1.25 .36)"/><g fill="#3f5a7c" opacity=".5"><circle cx="156.44" cy="62.4" r="1.42" transform="matrix(.99995393 -.00959916 .00959916 .99995393 -.59 1.5)"/><circle cx="156.48" cy="66.68" r="1.42" transform="matrix(.99995393 -.00959916 .00959916 .99995393 -.63 1.5)"/><circle cx="156.52" cy="70.95" r="1.42" transform="matrix(.99995393 -.00959916 .00959916 .99995393 -.67 1.5)"/><circle cx="152.44" cy="57.4" r="1.42" transform="matrix(.99995393 -.00959916 .00959916 .99995393 -.54 1.46)"/><circle cx="152.48" cy="61.68" r="1.42" transform="matrix(.99995393 -.00959916 .00959916 .99995393 -.58 1.46)"/><circle cx="152.52" cy="65.95" r="1.42" transform="matrix(.99995393 -.00959916 .00959916 .99995393 -.62 1.46)"/></g><g fill="#3f5a7c" opacity=".5"><circle cx="150.44" cy="128.4" r="1.42" transform="matrix(.99995393 -.00959916 .00959916 .99995393 -1.22 1.45)"/><circle cx="150.48" cy="132.68" r="1.42" transform="matrix(.99995393 -.00959916 .00959916 .99995393 -1.26 1.45)"/><circle cx="150.52" cy="136.95" r="1.42" transform="matrix(.99995393 -.00959916 .00959916 .99995393 -1.3 1.45)"/><circle cx="146.44" cy="123.4" r="1.42" transform="matrix(.99995393 -.00959916 .00959916 .99995393 -1.17 1.41)"/><circle cx="146.48" cy="127.68" r="1.42" transform="matrix(.99995393 -.00959916 .00959916 .99995393 -1.22 1.41)"/><circle cx="146.52" cy="131.95" r="1.42" transform="matrix(.99995393 -.00959916 .00959916 .99995393 -1.26 1.41)"/></g><circle cx="38.1" cy="54.82" fill="#fff" r="1.42" transform="matrix(.55687562 -.8305959 .8305959 .55687562 -28.65 55.94)"/><circle cx="35.72" cy="58.37" fill="#fff" r="1.42" transform="matrix(.55687562 -.8305959 .8305959 .55687562 -32.65 55.53)"/><circle cx="33.34" cy="61.92" fill="#fff" r="1.42" transform="matrix(.55687562 -.8305959 .8305959 .55687562 -36.65 55.13)"/><circle cx="37.62" cy="48.44" fill="#fff" r="1.42" transform="matrix(.55687562 -.8305959 .8305959 .55687562 -23.56 52.71)"/><circle cx="35.25" cy="51.98" fill="#fff" r="1.42" transform="matrix(.55687562 -.8305959 .8305959 .55687562 -27.56 52.31)"/><circle cx="32.87" cy="55.53" fill="#fff" r="1.42" transform="matrix(.55687562 -.8305959 .8305959 .55687562 -31.56 51.9)"/><g fill="#3f5a7c" opacity=".5"><circle cx="116.76" cy="174.52" r="1.42" transform="matrix(.95180875 -.3066922 .3066922 .95180875 -47.9 44.23)"/><circle cx="112.69" cy="175.83" r="1.42" transform="matrix(.95 -.31 .31 .95 -48.5 43.04)"/><circle cx="108.63" cy="177.14" r="1.42" transform="matrix(.95180875 -.3066922 .3066922 .95180875 -49.1 41.86)"/><circle cx="120.34" cy="169.21" r="1.42" transform="matrix(.95180875 -.3066922 .3066922 .95180875 -46.1 45.07)"/><circle cx="116.28" cy="170.52" r="1.42" transform="matrix(.95180875 -.3066922 .3066922 .95180875 -46.7 43.89)"/><circle cx="112.21" cy="171.83" r="1.42" transform="matrix(.95180875 -.3066922 .3066922 .95180875 -47.3 42.7)"/></g><circle cx="30.88" cy="111.4" fill="#fff" r="1.42" transform="matrix(.99995393 -.00959916 .00959916 .99995393 -1.06 .3)"/><circle cx="30.92" cy="115.68" fill="#fff" r="1.42" transform="matrix(.99995393 -.00959916 .00959916 .99995393 -1.11 .3)"/><circle cx="30.96" cy="119.95" fill="#fff" r="1.42" transform="matrix(.99995393 -.00959916 .00959916 .99995393 -1.15 .3)"/><g fill="none" stroke="#2e576d" stroke-miterlimit="10"><path d="m18 103.29h19.42"/><circle cx="38.99" cy="103.29" r="1.46"/><path d="m16.96 99.27h16.12"/><circle cx="34.65" cy="99.27" r="1.46"/><path d="m16.96 91.23h9.53"/><circle cx="28.06" cy="91.23" r="1.46"/><path d="m17.48 95.25h19.49"/><circle cx="38.54" cy="95.25" r="1.46"/><path d="m168.4 103.29h-19.42"/><circle cx="147.41" cy="103.29" r="1.46"/><path d="m169.44 99.27h-16.12"/><circle cx="151.75" cy="99.27" r="1.46"/><path d="m169.44 91.23h-9.53"/><circle cx="158.35" cy="91.23" r="1.46"/><path d="m168.92 95.25h-19.49"/><circle cx="147.86" cy="95.25" r="1.46"/></g><path d="m123.28 93.7a21.85 21.85 0 0 0 -7.46-3.24s3.71-2.15 5.22-4.3a16.33 16.33 0 0 0 2.4-7.21c.13-1.73.42-9-5.23-13.15-4.37-3.23-9.37-4.51-16.09-4.93v-14.61h-9v14.45h-6.88v-14.45h-9v14.45h-17.75v9.36h5.21c1.42 0 3.95.16 5 1.36s1.3 1.84 1.3 4.18 0 36.43 0 37.31a3.65 3.65 0 0 1 -.93 2.7c-.76.72-1.52.88-3.33.88h-5.4l-1.85 10.83h17.74v14.41h9v-14.41h6.87v14.41h9v-14.65c2.33-.14 4.5-.31 5.77-.48a30 30 0 0 0 13.82-4.8c5.43-3.79 6.66-9.73 6.78-15.72s-2.11-10.09-5.19-12.39zm-37-22.79s2.86-.25 5.69-.21a28.69 28.69 0 0 1 9.03 1.3c3.71 1.14 5.9 3.92 6 7.21a7.06 7.06 0 0 1 -3.94 6.79 22 22 0 0 1 -9.31 2.27c-3.29.13-7.5 0-7.5 0zm20.15 43.09c-2.06 1.14-6.19 2.15-10.2 2.44s-10 .17-10 .17v-19.33s5.73-.29 10.2 0a28.87 28.87 0 0 1 9.9 2.28 7.58 7.58 0 0 1 4.64 7.12c.03 4.43-2.48 6.2-4.54 7.32z" fill="#274b5b"/></svg>