<svg id="Capa_1" enable-background="new 0 0 512 512" height="512" viewBox="0 0 512 512" width="512" xmlns="http://www.w3.org/2000/svg"><g><g><path d="m166.029 95.402s-31.017-63.966-112.369-87.896c0 0-92.529 140.399 23.279 209.786" fill="#985e33"/><path d="m76.939 217.292 40.094-54.845-1.067-4.36c0-59.195-62.306-150.58-62.306-150.58s-92.523 140.4 23.279 209.785z" fill="#e4936b"/><path d="m346.058 95.402s31.017-63.966 112.369-87.896c0 0 92.529 140.399-23.279 209.786" fill="#985e33"/><path d="m435.148 217.292-40.094-54.845 1.067-4.36c0-59.195 62.306-150.58 62.306-150.58s92.523 140.4-23.279 209.785z" fill="#e4936b"/><path d="m452.444 241.104c-8.177-13.429-13.714-28.25-17.295-43.559-16.222-69.332-90.239-121.701-179.107-121.701-88.869 0-162.886 52.369-179.107 121.701-3.582 15.309-9.118 30.13-17.295 43.559-14.847 24.382-23.205 51.911-23.205 81.049 0 99.948 98.322 180.973 219.607 180.973 121.286 0 219.607-81.024 219.607-180.973 0-29.138-8.359-56.667-23.205-81.049z" fill="#c17d4f"/><path d="m254.494 503.114c-120.574-.684-218.061-81.436-218.061-180.957 0-29.139 8.357-56.667 23.209-81.054 8.176-13.432 13.714-28.253 17.288-43.558 16.221-69.334 90.247-121.702 179.115-121.702-48.431 0-88.777 52.368-97.617 121.702-1.943 15.305-4.964 30.126-9.425 43.558-8.085 24.387-12.647 51.915-12.647 81.054.001 99.158 52.751 179.699 118.138 180.957z" fill="#985e33"/><g fill="#f9f6f9"><path d="m160.735 395.634c-36.228 50.894-102.304 47.954-134.523 19.119 1.772 11.722 5.552 23.343 11.513 34.373 27.698 51.26 91.707 70.36 142.966 42.662 51.26-27.698 70.36-91.706 42.662-142.966-5.96-11.03-13.609-20.561-22.443-28.467 6.463 42.753-13.657 38.027-40.175 75.279z"/><path d="m351.348 395.634c36.228 50.894 102.304 47.954 134.523 19.119-1.772 11.722-5.552 23.343-11.513 34.373-27.698 51.26-91.707 70.36-142.966 42.662-51.26-27.698-70.36-91.706-42.662-142.966 5.96-11.03 13.609-20.561 22.443-28.467-6.463 42.753 13.657 38.027 40.175 75.279z"/></g><g><path d="m180.688 491.79c-51.26 27.699-115.268 8.599-142.967-42.662-5.961-11.025-9.737-22.655-11.509-34.375 7.793 6.968 17.56 12.425 28.404 15.979 31.445 37.98 86.32 49.77 131.348 25.434 24.689-13.341 41.927-35.12 50.062-59.829.927 38.403-19.221 75.939-55.338 95.453z" fill="#dfdde2"/></g><g><path d="m331.39 491.79c51.26 27.699 115.268 8.599 142.968-42.662 5.961-11.025 9.737-22.655 11.509-34.375-7.793 6.968-17.56 12.425-28.404 15.979-31.445 37.98-86.32 49.77-131.348 25.434-24.689-13.341-41.927-35.12-50.062-59.829-.928 38.403 19.22 75.939 55.337 95.453z" fill="#dfdde2"/></g><ellipse cx="256.042" cy="356.246" fill="#e4936b" rx="109.559" ry="90.284"/><g fill="#384649"><circle cx="194.962" cy="354.846" r="21.953"/><circle cx="317.122" cy="354.846" r="21.953"/></g></g><g><path d="m89.032 120.436-24.387-28.866c-2.673-3.164-7.405-3.562-10.569-.889s-3.562 7.405-.889 10.569l24.387 28.866c1.483 1.756 3.601 2.66 5.733 2.66 1.709 0 3.428-.581 4.836-1.771 3.164-2.673 3.562-7.404.889-10.569z"/><path d="m67.851 141.394h-19.944c-4.142 0-7.5 3.358-7.5 7.5s3.358 7.5 7.5 7.5h19.944c4.142 0 7.5-3.358 7.5-7.5s-3.358-7.5-7.5-7.5z"/><path d="m224.416 354.828c0-16.24-13.212-29.452-29.452-29.452s-29.452 13.212-29.452 29.452 13.212 29.452 29.452 29.452 29.452-13.212 29.452-29.452zm-43.905 0c0-7.969 6.484-14.453 14.453-14.453s14.453 6.483 14.453 14.453c0 7.969-6.484 14.453-14.453 14.453s-14.453-6.484-14.453-14.453z"/><path d="m317.12 384.28c16.24 0 29.452-13.212 29.452-29.452s-13.212-29.452-29.452-29.452-29.452 13.212-29.452 29.452 13.212 29.452 29.452 29.452zm0-43.905c7.969 0 14.453 6.483 14.453 14.453 0 7.969-6.483 14.453-14.453 14.453-7.969 0-14.453-6.484-14.453-14.453 0-7.97 6.483-14.453 14.453-14.453z"/><path d="m159.467 242.45c0-18.854-10.263-34.193-22.878-34.193s-22.879 15.339-22.879 34.193 10.263 34.193 22.879 34.193c12.614-.001 22.878-15.34 22.878-34.193z"/><path d="m396.366 242.45c0-18.854-10.263-34.193-22.878-34.193s-22.879 15.339-22.879 34.193 10.263 34.193 22.879 34.193c12.615-.001 22.878-15.34 22.878-34.193z"/><path d="m458.011 90.681c-3.165-2.674-7.896-2.275-10.569.889l-24.387 28.866c-2.673 3.164-2.275 7.896.889 10.569 1.409 1.19 3.127 1.771 4.836 1.771 2.132 0 4.249-.904 5.733-2.66l24.387-28.866c2.673-3.164 2.275-7.896-.889-10.569z"/><path d="m444.236 156.393h19.944c4.142 0 7.5-3.358 7.5-7.5s-3.358-7.5-7.5-7.5h-19.944c-4.142 0-7.5 3.358-7.5 7.5s3.358 7.5 7.5 7.5z"/><path d="m489.433 408.132c-2.782-1.503-6.209-1.1-8.567 1.009-9.284 8.308-21.775 14.148-35.329 16.914 24.366-30.645 37.608-66.92 37.608-103.912 0-29.905-8.177-58.489-24.301-84.955-3.743-6.153-7.015-12.853-9.815-20.026 8.913-6.295 16.784-13.279 23.428-20.83 2.736-3.11 2.433-7.849-.677-10.585-3.11-2.737-7.849-2.434-10.585.677-4.94 5.615-10.682 10.891-17.115 15.773-.577-2.094-1.126-4.212-1.631-6.369-5.68-24.267-17.954-46.347-35.091-65.06 10.12-41.324 38.017-88.726 50.76-108.999 5.056 9.197 12.398 24.004 18.262 41.724 9.005 27.208 16.171 66.904-.827 101.5-1.827 3.718-.293 8.212 3.424 10.038 1.064.523 2.191.77 3.301.77 2.77 0 5.433-1.54 6.737-4.194 15.224-30.985 15.778-70 1.605-112.827-10.54-31.854-25.318-54.456-25.942-55.403-1.814-2.753-5.214-3.999-8.379-3.068-69.257 20.373-103.158 68.162-113.494 85.49-26.182-11.198-55.751-17.467-86.762-17.467-31.01 0-60.577 6.268-86.758 17.465-10.335-17.327-44.238-65.115-113.502-85.492-3.166-.931-6.564.315-8.379 3.068-1.956 2.968-47.732 73.455-33.535 141.327 6.157 29.434 22.696 53.788 49.186 72.473-2.801 7.172-6.072 13.868-9.811 20.014-16.125 26.502-24.302 55.085-24.302 84.955 0 14.862 2.087 29.64 6.202 43.925 1.147 3.98 5.301 6.28 9.283 5.13 3.98-1.146 6.277-5.303 5.13-9.283-3.726-12.934-5.616-26.314-5.616-39.771 0-27.08 7.441-53.04 22.117-77.159 8.061-13.252 14.182-28.639 18.194-45.738 15.712-67.165 87.96-115.914 171.791-115.914 83.827 0 156.08 48.749 171.801 115.915 3.998 17.086 10.116 32.474 18.187 45.742 14.674 24.085 22.114 50.044 22.114 77.155 0 38.673-15.178 75.133-43.923 105.647-1.645-.065-3.289-.163-4.93-.322-22.387-2.169-42.479-12.802-57.084-30.089 6.98-12.516 10.887-26.459 10.887-41.152 0-53.916-52.51-97.781-117.054-97.781s-117.054 43.864-117.054 97.781c0 14.692 3.907 28.635 10.886 41.15-14.604 17.288-34.693 27.92-57.078 30.09-1.643.159-3.29.257-4.937.322-11.865-12.612-21.525-26.426-28.736-41.106-1.827-3.718-6.323-5.25-10.038-3.425-3.718 1.827-5.251 6.321-3.425 10.038 5.63 11.462 12.618 22.422 20.855 32.75-13.539-2.768-26.017-8.605-35.292-16.905-2.359-2.11-5.784-2.512-8.567-1.009-2.783 1.504-4.323 4.592-3.849 7.719 1.953 12.916 6.1 25.304 12.326 36.817 14.348 26.553 38.178 45.93 67.1 54.56 10.693 3.191 21.605 4.772 32.46 4.771 17.307-.001 34.462-4.023 50.303-11.943 24.079 6.991 49.309 10.544 75.05 10.544 25.735 0 50.962-3.553 75.04-10.544 15.842 7.921 32.993 11.943 50.302 11.943 10.853 0 21.769-1.581 32.461-4.771 28.921-8.63 52.751-28.007 67.099-54.559 6.235-11.533 10.386-23.92 12.336-36.819.473-3.127-1.067-6.215-3.85-7.719zm-419.784-212.308c-.507 2.163-1.06 4.286-1.639 6.385-21.118-16.036-34.376-36.351-39.446-60.517-6.714-32.001 2.06-65.483 10.603-87.935 5.085-13.365 10.694-24.516 14.802-31.988 12.743 20.274 40.641 67.676 50.76 109-17.134 18.711-29.404 40.79-35.08 65.055zm47.358-77.147c-6.239-21.469-16.894-46.069-31.809-73.362-4.894-8.956-9.553-16.918-13.514-23.445 29.274 12.319 49.917 29.704 62.809 43.271 10.404 10.949 17.297 20.935 21.119 27.112-14.204 7.364-27.192 16.254-38.605 26.424zm239.472-26.42c8.945-14.429 34.829-49.779 83.93-70.398-3.962 6.529-8.624 14.496-13.521 23.457-14.915 27.292-25.57 51.893-31.809 73.362-11.412-10.169-24.398-19.058-38.6-26.421zm-100.437 181.189c56.273 0 102.055 37.135 102.055 82.781s-45.781 82.781-102.055 82.781-102.055-37.135-102.055-82.781 45.781-82.781 102.055-82.781zm-153.522 219.41c-25.082-7.485-45.749-24.289-58.193-47.319-2.364-4.373-4.383-8.891-6.048-13.528 13.709 7.11 29.785 10.917 46.249 10.859.071.002.141.01.212.01.102 0 .204-.01.305-.014 3.058-.026 6.127-.169 9.197-.467 24.927-2.417 47.413-13.735 64.28-32.149 13.621 17.101 33.507 30.433 56.901 37.686-9.023 15.712-22.117 28.485-38.298 37.231-23.027 12.445-49.522 15.176-74.605 7.691zm96.098-3.71c13.274-9.972 24.09-22.677 31.869-37.492 8.229 1.537 16.779 2.353 25.554 2.353 8.773 0 17.321-.816 25.547-2.352 7.785 14.816 18.602 27.52 31.873 37.49-18.608 4.281-37.851 6.455-57.417 6.455-19.571.001-38.817-2.173-57.426-6.454zm269.133-43.608c-12.444 23.028-33.111 39.833-58.193 47.318-25.081 7.485-51.577 4.753-74.605-7.69-16.176-8.743-29.271-21.516-38.3-37.23 23.397-7.253 43.284-20.585 56.906-37.687 16.868 18.415 39.356 29.733 64.287 32.149 3.076.298 6.151.441 9.214.467.096.004.191.013.287.013.066 0 .133-.008.199-.01 16.466.059 32.545-3.747 46.256-10.856-1.666 4.633-3.685 9.15-6.051 13.526z"/></g></g></svg>