<svg id="Capa_1" enable-background="new 0 0 512 512" height="512" viewBox="0 0 512 512" width="512" xmlns="http://www.w3.org/2000/svg"><g><g><g fill="#faae43"><path d="m51.794 490.33h-15.791c-6.833 0-12.018-6.157-10.854-12.891l24.772-143.297h60.304l-47.949 148.557c-1.468 4.549-5.702 7.631-10.482 7.631z"/><path d="m460.206 490.33h15.791c6.833 0 12.018-6.157 10.854-12.891l-24.772-143.297h-60.304l47.949 148.556c1.468 4.55 5.702 7.632 10.482 7.632z"/></g><g><g><g><path d="m417.313 172.498c-.06-1.296-.759-2.478-1.865-3.157l-21.425-13.132c-2.67-1.636-2.433-5.59.413-6.896l15.806-7.256c1.965-.902 2.827-3.226 1.925-5.191l-10.991-23.945c-.541-1.179-1.632-2.014-2.912-2.228l-26.002-4.353c-2.951-.494-4.28-3.982-2.405-6.314l11.982-14.91c1.295-1.612 1.114-3.953-.415-5.346l-19.648-17.905c-.959-.874-2.289-1.216-3.551-.913l-24.435 5.864c-3.045.731-5.673-2.232-4.584-5.168l6.046-16.307c.752-2.027-.282-4.28-2.31-5.032l-24.702-9.159c-1.217-.451-2.578-.27-3.634.483l-21.464 15.308c-2.436 1.737-5.841.211-6.165-2.764l-2.07-19.016c-.224-2.056-2.008-3.583-4.074-3.487l-26.554 1.232c-1.296.06-2.478.759-3.157 1.865l-13.132 21.425c-1.636 2.67-5.59 2.433-6.896-.413l-7.256-15.806c-.902-1.965-3.226-2.827-5.191-1.925l-17.258 7.922c-.979.449-1.729 1.281-2.075 2.301l-10.5 30.972c-.873 2.575-4.041 3.498-6.16 1.795l-15.757-12.662c-1.612-1.295-3.953-1.114-5.346.415l-12.95 14.21c-.725.796-1.091 1.855-1.01 2.929l2.36 31.583c.213 2.845-2.591 4.954-5.265 3.963l-17.564-6.512c-2.027-.752-4.28.282-5.032 2.31l-6.602 17.805c-.374 1.01-.316 2.129.16 3.094l14.476 29.325c1.204 2.438-.384 5.331-3.087 5.625l-20.096 2.188c-2.056.224-3.583 2.008-3.487 4.074l.891 19.205c.05 1.076.541 2.083 1.356 2.786l24.001 20.664c2.162 1.861 1.671 5.335-.921 6.525l-17.024 7.815c-1.965.902-2.827 3.226-1.925 5.191l7.922 17.258c.449.979 1.281 1.729 2.301 2.075l30.972 10.5c2.575.873 3.498 4.041 1.795 6.16l-12.663 15.757c-1.295 1.612-1.114 3.953.415 5.346l14.21 12.95c.796.725 1.855 1.091 2.929 1.01l31.583-2.36c2.845-.213 4.954 2.591 3.963 5.265l-6.512 17.564c-.752 2.027.282 4.28 2.31 5.032l17.805 6.602c1.01.374 2.129.316 3.094-.16l29.325-14.476c2.438-1.204 5.331.384 5.625 3.087l2.188 20.096c.224 2.056 2.008 3.583 4.074 3.487l19.205-.891c1.076-.05 2.083-.541 2.786-1.356l20.664-24.001c1.861-2.162 5.335-1.671 6.525.921l7.815 17.024c.902 1.965 3.226 2.827 5.191 1.925l23.945-10.991c1.179-.541 2.014-1.632 2.228-2.912l4.353-26.002c.494-2.951 3.982-4.28 6.314-2.405l14.91 11.982c1.612 1.295 3.953 1.114 5.346-.415l17.905-19.648c.874-.959 1.216-2.289.913-3.551l-5.864-24.435c-.731-3.045 2.232-5.673 5.168-4.585l16.307 6.046c2.027.752 4.28-.282 5.032-2.31l9.159-24.703c.451-1.217.27-2.578-.483-3.634l-15.308-21.464c-1.737-2.436-.211-5.841 2.764-6.165l19.016-2.07c2.056-.224 3.583-2.008 3.487-4.074zm-159.878 42.661c-17.088.793-31.582-12.417-32.375-29.504-.793-17.088 12.417-31.583 29.504-32.375s31.583 12.417 32.375 29.504-12.416 31.582-29.504 32.375z" fill="#f1faff"/><path d="m417.313 172.498c-.06-1.296-.759-2.478-1.865-3.157l-21.425-13.132c-2.67-1.636-2.433-5.59.413-6.896l15.806-7.256c1.965-.902 2.827-3.226 1.925-5.191l-10.991-23.945c-.541-1.179-1.632-2.014-2.912-2.228l-26.002-4.353c-2.951-.494-4.28-3.982-2.405-6.314l11.982-14.91c1.295-1.612 1.114-3.953-.415-5.346l-19.648-17.905c-.959-.874-2.289-1.216-3.551-.913l-24.435 5.864c-3.045.731-5.673-2.232-4.584-5.168l6.046-16.307c.752-2.027-.282-4.28-2.31-5.032l-24.702-9.159c-1.217-.451-2.578-.27-3.634.483l-21.464 15.308c-2.436 1.737-5.841.211-6.165-2.764l-2.07-19.016c-.224-2.056-2.008-3.583-4.074-3.487l-26.554 1.232c-1.296.06-2.478.759-3.157 1.865l-2.848 4.647c62.755 20.154 109.447 77.558 112.682 147.268 3.507 75.581-45.188 141.494-114.27 162.838l.409 3.754c.224 2.056 2.008 3.583 4.074 3.487l19.205-.891c1.076-.05 2.083-.541 2.786-1.356l20.664-24.001c1.861-2.162 5.335-1.671 6.525.921l7.815 17.024c.902 1.965 3.226 2.827 5.191 1.925l23.945-10.991c1.179-.541 2.014-1.632 2.228-2.912l4.353-26.002c.494-2.951 3.982-4.28 6.314-2.405l14.91 11.982c1.612 1.295 3.953 1.114 5.346-.415l17.905-19.648c.874-.959 1.216-2.289.913-3.551l-5.864-24.435c-.731-3.045 2.232-5.673 5.168-4.585l16.307 6.046c2.027.752 4.28-.282 5.032-2.31l9.159-24.703c.451-1.217.27-2.578-.483-3.634l-15.308-21.464c-1.737-2.436-.211-5.841 2.764-6.165l19.016-2.07c2.056-.224 3.583-2.008 3.487-4.074z" fill="#dcf5ff"/><path d="m330.6 180.758c-1.912-41.201-36.861-73.051-78.061-71.139-41.201 1.912-73.05 36.861-71.139 78.061 1.912 41.201 36.861 73.051 78.061 71.139s73.051-36.86 71.139-78.061zm-73.165 34.401c-17.088.793-31.582-12.417-32.375-29.504-.793-17.088 12.417-31.583 29.504-32.375s31.583 12.417 32.375 29.504-12.416 31.582-29.504 32.375z" fill="#c7eefb"/></g></g><g><path d="m490.081 348.146h-468.162c-7.963 0-14.419-6.456-14.419-14.419v-130.191c0-7.963 6.456-14.419 14.419-14.419h468.162c7.963 0 14.419 6.456 14.419 14.419v130.191c0 7.963-6.456 14.419-14.419 14.419z" fill="#fbc980"/><path d="m490.081 189.117h-50.914v122.137c0 7.964-6.456 14.419-14.419 14.419h-417.248v8.054c0 7.964 6.456 14.419 14.419 14.419h468.162c7.963 0 14.419-6.456 14.419-14.419v-130.191c0-7.963-6.456-14.419-14.419-14.419z" fill="#f9bc66"/><path d="m180.919 369.422h-159c-7.963 0-14.419-6.456-14.419-14.419v-89.04h173.419c7.201 0 13.039 5.838 13.039 13.039v77.382c-.001 7.201-5.838 13.038-13.039 13.038z" fill="#eff3f5"/><path d="m180.919 265.963h-65.333c7.201 0 13.039 5.838 13.039 13.039v77.382c0 7.201-5.838 13.039-13.039 13.039h65.333c7.201 0 13.039-5.838 13.039-13.039v-77.382c-.001-7.201-5.838-13.039-13.039-13.039z" fill="#daeaef"/><g><circle cx="64.82" cy="317.693" fill="#cbee9a" r="21.276"/><circle cx="136.637" cy="317.693" fill="#fa8084" r="21.276"/></g></g></g></g><g><path d="m490.081 181.617h-64.836l-.439-9.466c-.175-3.784-2.208-7.224-5.438-9.204l-15.696-9.62 9.701-4.453c5.719-2.626 8.236-9.416 5.611-15.136l-10.992-23.946c-1.581-3.441-4.754-5.87-8.489-6.495l-19.965-3.343 8.148-10.139c3.768-4.688 3.237-11.535-1.209-15.588l-19.647-17.905c-2.8-2.552-6.67-3.546-10.353-2.663l-17.901 4.296 3.71-10.008c2.188-5.901-.833-12.482-6.735-14.671l-24.703-9.159c-3.551-1.316-7.512-.79-10.597 1.409l-16.481 11.754-1.408-12.932c-.652-5.979-5.899-10.445-11.877-10.166l-26.553 1.231c-3.784.175-7.224 2.208-9.204 5.438l-9.62 15.696-4.453-9.701c-2.626-5.72-9.417-8.238-15.136-5.611l-17.258 7.922c-2.841 1.304-5.046 3.75-6.049 6.709l-8.854 26.118-11.761-9.452c-4.688-3.768-11.536-3.237-15.588 1.209l-12.949 14.208c-2.105 2.31-3.18 5.422-2.947 8.541l1.943 26.012-12.327-4.57c-5.899-2.188-12.481.833-14.671 6.735l-6.602 17.807c-1.086 2.93-.916 6.218.468 9.02l12.208 24.729-15 1.633c-5.98.65-10.447 5.867-10.168 11.877l.551 11.883h-64.596c-12.086.001-21.919 9.834-21.919 21.92v62.427 89.04c0 12.086 9.833 21.919 21.919 21.919h12.996l-17.156 99.239c-.933 5.395.555 10.891 4.081 15.079s8.688 6.59 14.163 6.59h15.791c8.063 0 15.143-5.155 17.62-12.828l17.268-53.502h338.636l17.269 53.502c2.477 7.673 9.557 12.828 17.62 12.828h15.791c5.475 0 10.637-2.402 14.163-6.59s5.013-9.684 4.081-15.078l-6.882-39.813c-.705-4.081-4.587-6.82-8.667-6.112-4.082.706-6.819 4.586-6.113 8.668l6.882 39.812c.242 1.402-.381 2.395-.775 2.862-.393.467-1.266 1.251-2.688 1.251h-15.791c-1.531 0-2.875-.979-3.345-2.435l-40.264-124.749h41.589l8.408 48.635c.704 4.074 4.578 6.819 8.668 6.113 4.082-.706 6.818-4.586 6.112-8.668l-7.966-46.079h16.674c12.086 0 21.919-9.833 21.919-21.919v-130.192c-.003-12.086-9.836-21.919-21.922-21.919zm-372.231-11.035c7.873-.858 12.506-9.299 9-16.401l-13.792-27.94 4.818-12.996 14.203 5.266c7.802 2.894 15.971-3.268 15.352-11.554l-2.245-30.042 9.641-10.579c10.177 6.984 14.58 15.205 23.474 12.614 3.575-1.042 6.422-3.768 7.618-7.294l10.004-29.51 12.597-5.782 5.76 12.547c3.796 8.273 15.329 8.999 20.107 1.204l12.139-19.806 21.291-.988 1.706 15.667c.944 8.669 10.867 13.129 17.976 8.059l19.918-14.205 19.561 7.253-4.8 12.946c-1.469 3.96-.64 8.384 2.164 11.544s7.098 4.511 11.203 3.524l22.588-5.42 15.753 14.356-9.872 12.284c-5.463 6.798-1.598 16.968 7.013 18.409l24.128 4.04 8.703 18.96-12.549 5.76c-8.289 3.806-8.977 15.342-1.203 20.106l19.806 12.139.319 6.874h-72.101c-.012-.403-.02-.808-.038-1.207-2.104-45.366-40.504-80.372-85.9-78.284-43.11 2.001-76.99 37.054-78.307 79.49h-72.355l-.427-9.212zm136.367-24.794c-19.711.915-35.303 16.589-36.595 35.83h-28.74c1.282-34.519 28.799-62.872 64.005-64.506 37.089-1.718 68.5 26.898 70.221 63.995.008.167.002.343.009.511h-28.743c-1.406-20.793-19.238-36.812-40.157-35.83zm25.106 35.829h-46.651c1.251-11.271 10.562-20.304 22.24-20.846 12.42-.576 23.059 8.659 24.411 20.846zm-224.184 298.778c-.47 1.457-1.814 2.435-3.345 2.435h-15.791c-1.423 0-2.295-.784-2.688-1.251-.394-.467-1.017-1.46-.775-2.862l17.598-101.794h38.399zm365.337-63.895h-328.952l12.774-39.578h76.621c11.325 0 20.539-9.214 20.539-20.539v-.737h47.042v2.997c0 20.585 16.748 37.333 37.333 37.333s37.333-16.748 37.333-37.333v-2.997h77.668zm-219.018-75.854v-34.146h33.636c7.393 0 13.407 6.014 13.407 13.407v20.739zm62.042 17.997v-2.997h44.667v2.997c0 12.314-10.019 22.333-22.333 22.333-12.315 0-22.334-10.018-22.334-22.333zm233.5-24.916c0 3.815-3.104 6.919-6.919 6.919-7.333 0-221.514 0-226.581 0v-20.739c0-15.664-12.743-28.407-28.407-28.407h-33.636v-12.498c0-11.325-9.214-20.539-20.539-20.539h-98.545c-4.142 0-7.5 3.358-7.5 7.5s3.358 7.5 7.5 7.5h98.545c3.054 0 5.539 2.485 5.539 5.539v77.381c0 3.054-2.485 5.539-5.539 5.539-18.777 0-142.568 0-159 0-3.815 0-6.919-3.104-6.919-6.919v-81.54h32.311c4.142 0 7.5-3.358 7.5-7.5s-3.358-7.5-7.5-7.5h-32.31v-54.927c0-3.815 3.104-6.919 6.919-6.919h468.162c3.815 0 6.919 3.104 6.919 6.919z"/><path d="m36.044 317.692c0 15.867 12.909 28.776 28.776 28.776s28.776-12.909 28.776-28.776-12.909-28.776-28.776-28.776-28.776 12.909-28.776 28.776zm42.553 0c0 7.596-6.18 13.776-13.776 13.776s-13.776-6.18-13.776-13.776 6.18-13.776 13.776-13.776 13.776 6.18 13.776 13.776z"/><path d="m136.637 346.469c15.867 0 28.776-12.909 28.776-28.776s-12.909-28.776-28.776-28.776-28.776 12.909-28.776 28.776 12.909 28.776 28.776 28.776zm0-42.552c7.596 0 13.776 6.18 13.776 13.776s-6.18 13.776-13.776 13.776-13.776-6.18-13.776-13.776 6.18-13.776 13.776-13.776z"/></g></g></svg>