<svg height="64" viewBox="0 0 64 64" width="64" xmlns="http://www.w3.org/2000/svg"><g fill="none" fill-rule="evenodd"><path d="m16 51c-8.28427125 0-15-6.7157288-15-15s6.71572875-15 15-15c2.1706646 0 4.2336397.4610733 6.0963309 1.2906254.8484446-7.4793433 7.197408-13.2906254 14.9036691-13.2906254 8.2842712 0 15 6.7157288 15 15 0 1.0287036-.1035536 2.0332209-.3008052 3.0036966.0999699-.0024596.2002431-.0036966.3008052-.0036966 6.627417 0 12 5.372583 12 12s-5.372583 12-12 12z" fill="#b4dffb"/><path d="m16 25c-6.07513225 0-11 4.9248678-11 11" stroke="#fff" stroke-linecap="round" stroke-width="2"/><g fill="#ff5eac"><path d="m30 27.9970047c0-1.1029153.8867064-1.9970047 1.9981014-1.9970047h4.0037972c1.103521 0 1.9981014.8949789 1.9981014 1.9970047v24.0029953h-8z"/><path d="m33.4191341 46.8132122c.3208034-.4491247.8381075-.453074 1.1617318 0l8.8382682 12.3735756c.3208034.4491247.1255603.8132122-.4109372.8132122h-18.0163938c-.5477577 0-.7345615-.3601382-.4109372-.8132122z" transform="matrix(1 0 0 -1 0 106)"/></g></g></svg>