<svg enable-background="new 0 0 48 48" viewBox="0 0 48 48" xmlns="http://www.w3.org/2000/svg"><path d="m15 40h23l6 6v-21c0-2.2-1.8-4-4-4h-25c-2.2 0-4 1.8-4 4v11c0 2.2 1.8 4 4 4z" fill="#558b2f"/><path d="m28.8 32.8h-3.6l-.7 2.1h-2.2l3.7-10h1.9l3.7 10h-2.2zm-3.1-1.6h2.5l-1.2-3.8z" fill="#1b5e20"/><path d="m33 25h-23l-6 6v-23c0-2.2 1.8-4 4-4h25c2.2 0 4 1.8 4 4v13c0 2.2-1.8 4-4 4z" fill="#8bc34a"/><path d="m25.4 14.2c0 1-.2 1.8-.5 2.5s-.7 1.3-1.3 1.7l1.7 1.3-1.3 1.2-2.2-1.7c-.2 0-.5.1-.8.1-.6 0-1.2-.1-1.8-.3-.5-.2-1-.6-1.4-1s-.7-1-.9-1.6-.3-1.3-.3-2.1v-.4c0-.8.1-1.5.3-2.1s.5-1.2.9-1.6.8-.8 1.4-1c.5-.2 1.1-.3 1.8-.3.6 0 1.2.1 1.8.3.5.2 1 .6 1.4 1s.7 1 .9 1.6.3 1.3.3 2.1zm-2.2-.5c0-1.1-.2-1.9-.6-2.4-.4-.6-.9-.8-1.6-.8s-1.3.3-1.6.8c-.4.6-.6 1.4-.6 2.4v.5c0 .5.1 1 .2 1.4s.2.8.4 1c.2.3.4.5.7.6s.6.2.9.2c.7 0 1.3-.3 1.6-.8.4-.6.6-1.4.6-2.5z" fill="#fff"/></svg>