<?xml version="1.0" encoding="iso-8859-1"?>
<!-- Generator: Adobe Illustrator 19.0.0, SVG Export Plug-In . SVG Version: 6.00 Build 0)  -->
<svg version="1.1" id="Capa_1" xmlns="http://www.w3.org/2000/svg" xmlns:xlink="http://www.w3.org/1999/xlink" x="0px" y="0px"
	 viewBox="0 0 512 512" style="enable-background:new 0 0 512 512;" xml:space="preserve">
<path style="fill:#F9D366;" d="M270.34,415.803c7.674,18.967,29.123,57.005,81.546,74.1H237.101H122.305
	c49.114-16.01,71.039-50.397,79.933-70.274"/>
<g>
	<path style="fill:#DD8833;" d="M237.102,417.675l-11.419,1.955c-2.918,19.879-10.102,54.267-26.181,70.276h-77.196
		c49.12-16.009,71.036-50.397,79.932-70.276L237.102,417.675z"/>
	<path style="fill:#DD8833;" d="M248.156,417.047l-11.054,0.628l10.882-1.874C248.034,416.206,248.095,416.621,248.156,417.047z"/>
</g>
<path style="fill:#F9D366;" d="M164.644,277.396c9.899-33.943,33.051-57.753,60.043-57.753c27.438,0,50.924,24.611,60.529,59.475"/>
<path style="fill:#DD8833;" d="M224.93,278.257l-60.286-0.861c9.899-33.943,33.051-57.753,60.043-57.753h0.122
	c-9.332,0.071-17.326,23.861-20.751,57.753L224.93,278.257z"/>
<path style="fill:#F9D366;" d="M504.4,232.398c0,0-25.307,3.102-56.332,34.129S392.22,420.105,216.934,420.105
	c-88.772,0-115.483-48.934-120.222-97.242c-2.394-24.401,16.988-45.478,41.506-45.478h22.869
	c102.386,0,187.697,17.064,249.749-44.988H504.4z"/>
<g>
	<path style="fill:#DD8833;" d="M265.566,380.592c-88.772,0-115.483-48.934-120.222-97.242c-0.198-2.015-0.233-4.004-0.143-5.964
		h-6.982c-24.518,0-43.9,21.077-41.506,45.478c4.739,48.308,31.449,97.242,120.222,97.242c90.205,0,140.559-32.456,172.421-68.191
		C359.327,368.936,319.603,380.592,265.566,380.592z"/>
	<path style="fill:#DD8833;" d="M488.216,237.674c9.996-4.511,16.184-5.276,16.184-5.276h-12.375
		C490.762,234.027,489.495,235.788,488.216,237.674z"/>
</g>
<g>
	<polygon style="fill:#F9D366;" points="224.686,219.638 270.282,140.663 179.09,140.663 	"/>
	<path style="fill:#F9D366;" d="M126.935,95.394l16.002-3.244c7.554-1.532,7.554-12.328,0-13.86l-16.002-3.243
		c-15.769-3.197-28.092-15.52-31.289-31.289l-3.244-16.002c-1.532-7.554-12.328-7.554-13.86,0l-3.244,16.002
		c-3.197,15.768-15.52,28.091-31.289,31.289l-16.002,3.244c-7.554,1.532-7.554,12.328,0,13.86l16.002,3.244
		c15.769,3.197,28.092,15.52,31.289,31.289l3.244,16.002c1.532,7.554,12.328,7.554,13.86,0l3.244-16.002
		C98.842,110.915,111.166,98.592,126.935,95.394z"/>
</g>
<path style="fill:#FFDB82;" d="M338.296,304.183c0,8.813-22.454,26.09-50.152,26.09s-50.152-17.277-50.152-26.09
	s22.454-5.825,50.152-5.825S338.296,295.37,338.296,304.183z"/>
<path d="M363.626,128.862c0-4.197-3.401-7.599-7.599-7.599c-4.198,0-7.599,3.402-7.599,7.599v19.757
	c0,4.197,3.401,7.599,7.599,7.599c4.198,0,7.599-3.402,7.599-7.599V128.862z"/>
<path d="M356.027,174.455c-4.198,0-7.599,3.402-7.599,7.599v19.757c0,4.197,3.401,7.599,7.599,7.599
	c4.198,0,7.599-3.402,7.599-7.599v-19.757C363.626,177.856,360.225,174.455,356.027,174.455z"/>
<path d="M372.745,157.738c-4.198,0-7.599,3.402-7.599,7.599c0,4.197,3.401,7.599,7.599,7.599h19.757
	c4.198,0,7.599-3.402,7.599-7.599c0-4.197-3.401-7.599-7.599-7.599H372.745z"/>
<path d="M319.554,172.936h19.757c4.198,0,7.599-3.402,7.599-7.599c0-4.197-3.401-7.599-7.599-7.599h-19.757
	c-4.198,0-7.599,3.402-7.599,7.599C311.955,169.534,315.356,172.936,319.554,172.936z"/>
<path d="M511.986,231.935c-0.245-4.01-3.568-7.136-7.585-7.136h-93.564c-2.015,0-3.947,0.8-5.374,2.226
	c-22.041,22.041-48.45,35.027-83.108,40.866c-31.927,5.378-68.129,4.236-106.459,3.029c-17.655-0.557-35.911-1.133-54.808-1.133
	H138.22c-13.466,0-26.385,5.551-35.677,15.255c-3.531-33.89-12.374-56.562-26.757-68.856c-10.623-9.079-24.075-12.411-39.977-9.905
	c-16.878,2.662-29.228,14.837-33.884,33.405c-6.922,27.601,4.136,69.104,44.442,99.607c26.24,19.858,33.126,43.439,29.633,53.842
	c-1.573,4.682-5.199,6.959-11.087,6.959c-4.198,0-7.599,3.402-7.599,7.599s3.401,7.599,7.599,7.599
	c12.507,0,21.8-6.312,25.494-17.319c3.268-9.731,1.701-22.123-4.412-34.893c-6.31-13.185-16.843-25.601-30.46-35.905
	c-24.241-18.347-46.745-52.393-38.871-83.791c1.824-7.27,7.042-19.807,21.509-22.088c11.476-1.811,20.545,0.3,27.737,6.445
	c14.622,12.496,22.392,42.003,23.138,87.731c-0.189,2.695-0.165,5.415,0.101,8.134c0,0.005,0.001,0.01,0.002,0.015
	c0.001,0.014,0.003,0.028,0.004,0.042c4.675,47.478,30.644,104.041,127.779,104.041c55.126,0,101.663-12.19,138.318-36.23
	c3.51-2.301,4.489-7.012,2.187-10.522c-2.302-3.51-7.01-4.489-10.522-2.186c-34.617,22.704-77.135,33.741-129.983,33.741
	c-68.757,0-106.645-30.313-112.626-90.092c-0.002-2.254-0.024-4.465-0.057-6.651c0.641-7.219,3.597-13.999,8.625-19.547
	c6.472-7.138,15.709-11.232,25.342-11.232h22.868c18.656,0,36.792,0.571,54.328,1.125c78.177,2.466,145.847,4.597,198.526-46.112
	h54.466c-7.838,5.143-16.565,12.007-25.714,21.156c-7.278,7.278-13.924,18.571-21.619,31.647
	c-12.203,20.734-27.39,46.54-52.057,68.865c-3.111,2.817-3.351,7.621-0.534,10.733c2.817,3.114,7.621,3.351,10.734,0.535
	c26.388-23.884,42.228-50.798,54.954-72.424c7.168-12.18,13.36-22.699,19.269-28.608c22.772-22.772,43.931-30.866,51.884-31.959
	C509.312,239.452,512.23,235.944,511.986,231.935z"/>
<path d="M354.24,482.682c-26.893-8.769-48.355-24.243-63.791-45.99c-2.429-3.422-7.172-4.229-10.595-1.798
	c-3.423,2.429-4.228,7.173-1.798,10.595c10.618,14.961,23.738,27.272,39.201,36.819H156.943
	c15.47-9.547,28.589-21.857,39.208-36.819c2.429-3.422,1.624-8.166-1.798-10.595c-3.423-2.429-8.166-1.624-10.595,1.798
	c-15.436,21.749-36.905,37.221-63.811,45.99c-3.552,1.158-5.736,4.727-5.15,8.417c0.586,3.691,3.769,6.408,7.505,6.408h229.583
	c3.737,0,6.918-2.716,7.505-6.407S357.792,483.84,354.24,482.682z"/>
<path d="M167.8,250.296c-2.075,3.649-0.799,8.288,2.849,10.363c3.649,2.074,8.288,0.798,10.363-2.849
	c11.048-19.426,26.967-30.568,43.674-30.568c17.035,0,33.155,11.499,44.226,31.548c1.385,2.51,3.982,3.927,6.659,3.927
	c1.242,0,2.503-0.305,3.666-0.948c3.674-2.028,5.007-6.652,2.979-10.326c-11.283-20.434-27.325-33.753-45.201-37.961l39.849-69.02
	c1.358-2.351,1.358-5.248,0-7.599s-3.865-3.8-6.581-3.8H179.09c-2.715,0-5.223,1.449-6.581,3.8s-1.358,5.248,0,7.599l39.851,69.023
	C194.845,217.624,179.04,230.534,167.8,250.296z M257.121,148.261l-32.435,56.178l-32.435-56.178H257.121z"/>
<path d="M163.796,68.528c1.514,0,3.044-0.452,4.375-1.391c1.49-1.053,2.97-2.102,4.441-3.146
	c23.34-16.565,43.498-30.871,75.513-30.871c25.702,0,41.29,8.952,53.148,17.708c3.376,2.494,8.132,1.777,10.627-1.599
	c2.493-3.377,1.777-8.134-1.599-10.628c-13.038-9.629-31.889-20.681-62.176-20.681c-36.862,0-59.909,16.357-84.31,33.675
	c-1.46,1.037-2.929,2.079-4.409,3.124c-3.429,2.421-4.245,7.161-1.826,10.591C159.062,67.408,161.41,68.528,163.796,68.528z"/>
<path d="M320.743,67.128c14.831,13.097,33.288,29.395,62.326,33.543c20.017,2.859,34.9,12.425,43.041,27.663
	c9.777,18.302,9.407,44.061-0.946,65.628c-1.816,3.783-0.221,8.324,3.563,10.139c1.061,0.509,2.179,0.751,3.283,0.751
	c2.831,0,5.549-1.59,6.856-4.312c12.376-25.785,12.632-56.938,0.648-79.367c-7.333-13.725-22.705-31.034-54.297-35.546
	c-24.536-3.505-39.725-16.919-54.413-29.89c-3.146-2.778-7.949-2.481-10.727,0.666C317.299,59.548,317.597,64.35,320.743,67.128z"/>
<path d="M397.06,57.435c31.729,0,82.066,24.756,82.066,91.184c0,4.197,3.401,7.599,7.599,7.599s7.599-3.402,7.599-7.599
	c0-42.905-18.665-68.219-34.323-81.9c-17.547-15.33-41.077-24.483-62.941-24.483c-4.198,0-7.599,3.402-7.599,7.599
	S392.864,57.435,397.06,57.435z"/>
<path d="M26.497,99.598l16.002,3.244c12.804,2.596,22.756,12.548,25.352,25.352l3.243,16.002
	c1.403,6.921,7.315,11.755,14.376,11.755c7.063,0,12.975-4.834,14.377-11.755l3.244-16.001
	c2.597-12.805,12.547-22.756,25.352-25.352l16.002-3.244c6.921-1.403,11.755-7.316,11.755-14.377
	c0-7.062-4.834-12.974-11.755-14.376l-16.002-3.244c-12.805-2.596-22.755-12.547-25.352-25.352l-3.244-16.001
	c-1.403-6.921-7.315-11.755-14.377-11.755c-7.062,0-12.974,4.834-14.376,11.755L67.85,42.249
	c-2.597,12.805-12.549,22.756-25.352,25.352l-16.002,3.244c-6.92,1.403-11.754,7.315-11.755,14.376
	C14.742,92.282,19.576,98.195,26.497,99.598z M45.518,82.494C64.32,78.682,78.933,64.07,82.746,45.267l2.726-13.442l2.726,13.443
	c3.813,18.802,18.425,33.415,37.226,37.227l13.444,2.728l-13.444,2.725c-18.802,3.813-33.415,18.425-37.226,37.227l-2.727,13.443
	l-2.725-13.443c-3.814-18.802-18.426-33.415-37.227-37.226l-13.443-2.729L45.518,82.494z"/>
<g>
</g>
<g>
</g>
<g>
</g>
<g>
</g>
<g>
</g>
<g>
</g>
<g>
</g>
<g>
</g>
<g>
</g>
<g>
</g>
<g>
</g>
<g>
</g>
<g>
</g>
<g>
</g>
<g>
</g>
</svg>
