<svg viewBox="0 0 229.02 199.09" xmlns="http://www.w3.org/2000/svg"><rect fill="#ebeff7" height="8.44" rx="3.25" transform="matrix(.98142683 -.19183685 .19183685 .98142683 -35.32 16.74)" width="33.09" x="52.25" y="186.62"/><path d="m55.94 199.09a4.76 4.76 0 0 1 -4.66-3.84l-.37-1.9a4.76 4.76 0 0 1 3.75-5.57l26.1-5.1a4.76 4.76 0 0 1 5.57 3.75l.37 1.9a4.76 4.76 0 0 1 -3.75 5.57l-26.1 5.1a4.74 4.74 0 0 1 -.91.09zm25.73-13.5a1.76 1.76 0 0 0 -.33 0l-26.1 5.1a1.75 1.75 0 0 0 -1.38 2.05l.37 1.9a1.76 1.76 0 0 0 2.05 1.38l26.1-5.1a1.75 1.75 0 0 0 1.38-2.05l-.37-1.9a1.76 1.76 0 0 0 -1.72-1.41z" fill="#515862"/><circle cx="176.48" cy="73.59" fill="#de5f61" r="22.06" transform="matrix(.98142683 -.19183685 .19183685 .98142683 -10.84 35.21)"/><circle cx="168.06" cy="77.88" fill="#ee9fa4" r="22.06" transform="matrix(.98142683 -.19183685 .19183685 .98142683 -11.82 33.67)"/><path d="m62.28 184.51 9.35-1.83a10.45 10.45 0 0 0 7.79-13.92l-3.88-10.37a36.87 36.87 0 0 1 1.46-29.16l1.81-3.69a6.75 6.75 0 0 0 -7.36-9.6l-31 6.05a9.92 9.92 0 0 0 -7.28 13.48l17.42 42.73a10.45 10.45 0 0 0 11.69 6.31z" fill="#de5f61"/><path d="m71.38 181.41-9.38 1.82a10.44 10.44 0 0 1 -11.68-6.31l-.17-.42a14 14 0 0 0 7.43.21 14.33 14.33 0 0 0 10.33-10.71c1.14-5.35-.85-11.21 1.31-16.23a13.15 13.15 0 0 1 3.78-4.77 36.38 36.38 0 0 0 2.31 12.16l3.89 10.36a10.46 10.46 0 0 1 -7.82 13.89z" fill="#ee9fa4"/><path d="m76.4 130.17-41.57 8.13c-.92-5.19-4.1-9.9 1.32-11l41-8.06c5.03-.94.55 6.26-.75 10.93z" fill="#b0535c"/><rect fill="#de5f61" height="37.64" rx="8.5" transform="matrix(.98142683 -.19183685 .19183685 .98142683 -19.51 4.79)" width="22.06" x="3.95" y="84.35"/><path d="m22.24 123.39a12.06 12.06 0 0 1 -1.88.54l-1.27.25a11.06 11.06 0 0 1 -12.94-8.71l-4.24-18.56c-1.17-5.91 3.75-9.77 9.71-10.91l1.27-.25a10.75 10.75 0 0 1 1.95-.19 11 11 0 0 0 -6.84 12.36l3.24 16.56a11.07 11.07 0 0 0 11 8.91z" fill="#ee9fa4"/><g fill="#515862"><path d="m60 184.93a12 12 0 0 1 -11-7.44l-17.49-42.72a11.42 11.42 0 0 1 8.38-15.52l31-6.05a8.25 8.25 0 0 1 9 11.74l-1.81 3.69a35.51 35.51 0 0 0 -1.37 28l3.86 10.37a12 12 0 0 1 -8.9 15.92l-9.35 1.83a11.92 11.92 0 0 1 -2.32.18zm12.5-68.93a5.5 5.5 0 0 0 -1.05.1l-31 6.05a8.42 8.42 0 0 0 -6.18 11.44l17.44 42.72a9 9 0 0 0 10 5.4l9.35-1.83a9 9 0 0 0 6.7-11.88l-3.88-10.37a38.52 38.52 0 0 1 1.49-30.34l1.81-3.69a5.26 5.26 0 0 0 -4.68-7.6z"/><path d="m14 124.54a10 10 0 0 1 -9.81-8.08l-4-20.26a10 10 0 0 1 7.9-11.73l5-1a10 10 0 0 1 11.73 7.9l4 20.25a10 10 0 0 1 -7.9 11.73l-5 1a10 10 0 0 1 -1.92.19zm1-38.23a7 7 0 0 0 -1.34.13l-5 1a7 7 0 0 0 -5.53 8.21l4 20.25a7 7 0 0 0 8.21 5.53l5-1a7 7 0 0 0 5.53-8.21l-4.03-20.22a7 7 0 0 0 -6.84-5.69z"/><path d="m177.23 97.67a23.56 23.56 0 1 1 23.13-28.08 23.58 23.58 0 0 1 -23.13 28.08zm.05-44.14a20.57 20.57 0 1 0 20.14 16.63 20.58 20.58 0 0 0 -20.14-16.63z"/><path d="m206 85-.11-3a10.9 10.9 0 1 0 -.8-21.79l-.11-3a13.9 13.9 0 1 1 1.02 27.79z"/><path d="m206.93 92.95-.11-3a19.94 19.94 0 1 0 -1.47-39.84l-.11-3a22.94 22.94 0 0 1 1.69 45.84z"/></g><path d="m186.66 118.56c.8 4.11-2.31 7.55-5.83 6.44-13.76-4.36-42.89-12.91-58.8-12.55-29.66.68-58.36 8.44-87.24 14.08-8.4 1.64-16.79-5.09-18.79-14.91l-3.61-18.62-3.64-18.66c-1.92-9.82 3.37-19.24 11.76-20.88 28.88-5.65 58.4-9.25 86.13-19.79 16.92-6.43 36.83-14.88 49.69-30.12 2.71-3.2 7.57-1.44 8.46 3.12z" fill="#ebeff7"/><path d="m184.85 110.77 1.24 6.37c.69 3.52-1.5 10.56-5 9.69-13.56-3.37-43.31-13.92-59.14-13.18-29.52 1.4-58.28 8.86-87.17 14.51a15.61 15.61 0 0 1 -18.23-12.31l-1.24-6.37a15.61 15.61 0 0 0 18.23 12.31c28.89-5.64 57.65-13.1 87.17-14.51 15.83-.74 44.57 5.81 58.14 9.18a4.89 4.89 0 0 0 6-5.69z" fill="#bbd2e6"/><path d="m165.42 10.57 1.24 6.37a4.9 4.9 0 0 0 -8.33-2.44c-13.21 13.45-33.26 21.26-50.26 27.25-27.87 9.8-57.32 13.72-86.21 19.36a15.61 15.61 0 0 0 -12.26 18.26l-1.25-6.37a15.61 15.61 0 0 1 12.26-18.26c28.89-5.64 58.39-9.56 86.22-19.37 17-6 38-18.8 51.26-32.25 2.77-2.83 6.57 3.55 7.33 7.45z" fill="#fff"/><rect fill="#fff" height="28.82" rx="1" transform="matrix(.98142683 -.19183685 .19183685 .98142683 -7.4 32.41)" width="4.12" x="161.66" y="40.02"/><rect fill="#fff" height="4.12" rx="1" transform="matrix(.98 -.19 .19 .98 -11.2 33.54)" width="4.12" x="165.61" y="72.57"/><path d="m24.36 52.36c-1.26.23-2.51.47-3.77.72-7.46 1.5-12.4 9.39-11.93 18.27l-.07.86 2 10 2.21 11.57 2.26 11.55 2.13 10.91h.25c2.5 7.08 8.28 12 14.52 12.52a13.17 13.17 0 0 0 3.38-.18c1.26-.25 2.51-.49 3.77-.75 7.46-1.52 14.94-3.14 22.41-4.71l-14.63-74.82c-7.51 1.35-15.04 2.7-22.53 4.06z" fill="#de5f61"/><path d="m46.82 48.91 1.24 6.37c-9.16 1.72-18.36 3.3-27.48 5.08a15.58 15.58 0 0 0 -12.17 11.94l-.41-2.21.1-.72a15.61 15.61 0 0 1 12.37-15.6h.08l3.75-.77 5-.92 5-.92 6.95-1.26q2.75-.46 5.57-.99z" fill="#ee9fa4"/><path d="m59.66 115.4 1.24 6.36c-7.89 1.62-15.79 3.32-23.69 4.92l-2.69.54a15.65 15.65 0 0 1 -3.17.22 13.35 13.35 0 0 1 -1.33-.11 15.64 15.64 0 0 1 -12.69-9.86h-.24v-.18a9.89 9.89 0 0 0 1.33-.52 15.54 15.54 0 0 0 12.58 4.46c.44 0 .88-.11 1.32-.19 9.09-1.79 18.21-3.75 27.34-5.64z" fill="#b0535c"/><path d="m31.81 129.65c-8.22 0-15.87-6.94-17.78-16.7l-7.41-37.95c-2.12-10.89 3.65-21.19 12.87-23 6.62-1.29 13.38-2.5 19.92-3.66 22-3.91 44.71-8 65.95-16.11 18.35-7 37-15.55 49-30a5.74 5.74 0 0 1 5.95-2 7.28 7.28 0 0 1 5.16 5.88l22.27 114a7.51 7.51 0 0 1 -2.16 7.09 5.62 5.62 0 0 1 -5.59 1.16c-12.24-4-42.41-13.21-58.39-12.91-22.75.45-45.33 5.25-67.16 9.9-6.5 1.38-13.21 2.81-19.83 4.1a14.57 14.57 0 0 1 -2.8.2zm127.05-126.65a2.81 2.81 0 0 0 -2.18 1.11c-12.45 15-31.51 23.74-50.24 30.93-21.51 8.24-44.38 12.32-66.5 16.26-6.53 1.16-13.28 2.36-19.87 3.65-7.6 1.48-12.31 10.21-10.51 19.45l7.42 38c1.8 9.24 9.45 15.55 17.05 14.06 6.6-1.29 13.3-2.71 19.78-4.09 22-4.68 44.7-9.51 67.73-10 15.8-.33 44 8 59.37 13.06a2.65 2.65 0 0 0 2.67-.55 4.51 4.51 0 0 0 1.2-4.26l-22.27-114a4.38 4.38 0 0 0 -3-3.55 2.89 2.89 0 0 0 -.65-.07z" fill="#515862"/><path d="m53.2 48.3h3v73.48h-3z" fill="#515862" transform="matrix(.98231994 -.18720987 .18720987 .98231994 -14.96 11.75)"/><rect fill="#ebeff7" height="12.98" rx="5" transform="matrix(.98142683 -.19183685 .19183685 .98142683 -33.56 16.28)" width="46.72" x="43.96" y="175.05"/><path d="m89.73 177.82a6.51 6.51 0 0 1 -5.12 7.61l-15.41 3c.56-.3 1.14-.55 1.69-.83 1.94-1 8.59-4.21 6.89-7.25-.71-1.27-2.44-1.57-3.85-1.27-5.85 1.26-11.3 3.81-17.31 4.76-2.49.39-5.44.51-7.07-1.41a6.87 6.87 0 0 1 -1.3-3.08 5.3 5.3 0 0 1 .77-.2l33.12-6.47a6.51 6.51 0 0 1 7.59 5.14z" fill="#bbd2e6"/><path d="m49.58 193a6.51 6.51 0 0 1 -6.38-5.25l-.57-2.92a6.51 6.51 0 0 1 5.13-7.63l36-7a6.51 6.51 0 0 1 7.63 5.13l.57 2.92a6.51 6.51 0 0 1 -5.13 7.63l-36 7a6.49 6.49 0 0 1 -1.25.12zm35.47-20a3.52 3.52 0 0 0 -.67.07l-36 7a3.51 3.51 0 0 0 -2.76 4.11l.57 2.92a3.51 3.51 0 0 0 4.06 2.9l36-7a3.51 3.51 0 0 0 2.76-4.11l-.57-2.92a3.51 3.51 0 0 0 -3.39-2.91z" fill="#515862"/></svg>