<?xml version="1.0" encoding="iso-8859-1"?>
<!-- Generator: Adobe Illustrator 19.0.0, SVG Export Plug-In . SVG Version: 6.00 Build 0)  -->
<svg version="1.1" id="Capa_1" xmlns="http://www.w3.org/2000/svg" xmlns:xlink="http://www.w3.org/1999/xlink" x="0px" y="0px"
	 viewBox="0 0 512 512" style="enable-background:new 0 0 512 512;" xml:space="preserve">
<g>
	<path style="fill:#DD8833;" d="M62.699,161.745c-4.328,0-7.837-3.509-7.837-7.837v-20.767c0-4.328,3.509-7.837,7.837-7.837
		s7.837,3.509,7.837,7.837v20.767C70.535,158.237,67.027,161.745,62.699,161.745z"/>
	<path style="fill:#DD8833;" d="M62.699,217.656c-4.328,0-7.837-3.509-7.837-7.837v-20.767c0-4.328,3.509-7.837,7.837-7.837
		s7.837,3.509,7.837,7.837v20.767C70.535,214.147,67.027,217.656,62.699,217.656z"/>
	<path style="fill:#DD8833;" d="M101.038,179.316H80.271c-4.328,0-7.837-3.509-7.837-7.837s3.509-7.837,7.837-7.837h20.767
		c4.328,0,7.837,3.509,7.837,7.837S105.366,179.316,101.038,179.316z"/>
	<path style="fill:#DD8833;" d="M45.127,179.316H24.359c-4.328,0-7.837-3.509-7.837-7.837s3.509-7.837,7.837-7.837h20.767
		c4.328,0,7.837,3.509,7.837,7.837S49.455,179.316,45.127,179.316z"/>
	<path style="fill:#DD8833;" d="M449.302,58.437c-4.328,0-7.837-3.509-7.837-7.837V29.834c0-4.328,3.509-7.837,7.837-7.837
		s7.837,3.509,7.837,7.837v20.767C457.139,54.929,453.63,58.437,449.302,58.437z"/>
	<path style="fill:#DD8833;" d="M449.302,114.349c-4.328,0-7.837-3.509-7.837-7.837V85.744c0-4.328,3.509-7.837,7.837-7.837
		s7.837,3.509,7.837,7.837v20.767C457.139,110.84,453.63,114.349,449.302,114.349z"/>
	<path style="fill:#DD8833;" d="M487.641,76.01h-20.767c-4.328,0-7.837-3.509-7.837-7.837s3.509-7.837,7.837-7.837h20.767
		c4.328,0,7.837,3.509,7.837,7.837S491.97,76.01,487.641,76.01z"/>
	<path style="fill:#DD8833;" d="M431.73,76.01h-20.767c-4.328,0-7.837-3.509-7.837-7.837s3.509-7.837,7.837-7.837h20.767
		c4.328,0,7.837,3.509,7.837,7.837S436.058,76.01,431.73,76.01z"/>
</g>
<path style="fill:#BDF2DF;" d="M454.152,356.309c0,98.451-90.154,155.69-201.352,155.69c-20.459,0-40.197-1.933-58.797-5.716
	c-82.516-16.75-142.556-69.643-142.556-149.975c0-64.011,38.128-142.19,95.347-189.064c2.623-2.152,5.277-4.232,7.973-6.238h196.055
	c2.696,2.006,5.36,4.096,7.983,6.238C416.023,214.108,454.152,292.298,454.152,356.309z"/>
<path style="fill:#81DBBA;" d="M194.005,506.281c-82.518-16.742-142.554-69.643-142.554-149.977
	c0-66.926,41.696-149.37,103.318-195.293h52.952l4.611,8.339C212.334,169.35,74.253,387.126,194.005,506.281z"/>
<path style="fill:#56AB8F;" d="M358.805,167.245c-17.398,22.403-58.305,38.128-106.005,38.128c-19.143,0-37.209-2.529-53.091-7.022
	c-23.667-6.677-42.496-17.701-52.914-31.107c2.623-2.152,5.277-4.232,7.973-6.238h196.055
	C353.517,163.013,356.182,165.103,358.805,167.245z"/>
<path style="fill:#BDF2DF;" d="M367.742,128.506c0,34.379-51.462,62.239-114.937,62.239c-19.149,0-37.212-2.535-53.091-7.019
	c-36.765-10.384-61.857-31.215-61.857-55.222c0-21.961,20.992-41.269,52.708-52.335h124.48
	C346.761,87.247,367.742,106.556,367.742,128.506z"/>
<path style="fill:#81DBBA;" d="M231.206,76.171l-7.157,52.58c0,0-48.682,11.822-24.336,54.966v0.01
	c-36.765-10.384-61.857-31.215-61.857-55.222c0-21.961,20.992-41.269,52.708-52.335C190.564,76.171,231.206,76.171,231.206,76.171z"
	/>
<path style="fill:#F9D366;" d="M315.044,19.033v92.838c0,10.512-27.872,19.032-62.239,19.032c-10.374,0-20.15-0.777-28.756-2.151
	c-19.905-3.173-33.495-9.543-33.495-16.88V19.033H315.044z"/>
<g>
	<path style="fill:#DD8833;" d="M224.049,19.033v109.719c-19.905-3.173-33.495-9.543-33.495-16.88V19.033H224.049z"/>
	<ellipse style="fill:#DD8833;" cx="252.804" cy="19.032" rx="62.245" ry="19.032"/>
</g>
<path style="fill:#56AB8F;" d="M454.148,356.305c0,98.451-90.154,155.695-201.343,155.695
	c-111.199,0-201.353-57.245-201.353-155.695c0-19.394,3.504-40.088,9.979-60.813h382.737
	C450.643,316.228,454.148,336.921,454.148,356.305z"/>
<g>
	<path style="fill:#DD8833;" d="M287.887,63.079c-3.487,0-6.622-2.396-7.553-5.749c-0.88-3.168,0.379-6.637,3.069-8.518
		c5.795-4.052,13.82,1.457,12.078,8.332C294.609,60.582,291.444,63.079,287.887,63.079z"/>
	<path style="fill:#DD8833;" d="M252.799,68.366c-3.358,0-6.375-2.214-7.432-5.383c-1.055-3.161,0.085-6.746,2.753-8.733
		c5.462-4.067,13.462,0.631,12.428,7.427C259.971,65.469,256.652,68.366,252.799,68.366z"/>
	<path style="fill:#DD8833;" d="M274.429,89.379c-7.121,0-10.49-9.168-5.084-13.795c2.581-2.209,6.407-2.472,9.278-0.665
		c2.821,1.776,4.225,5.295,3.411,8.527C281.165,86.893,277.979,89.379,274.429,89.379z"/>
</g>
<ellipse style="fill:#81DBBA;" cx="252.804" cy="299.897" rx="191.467" ry="61.404"/>
<g>
	<path style="fill:#F9D366;" d="M467.322,303.976l20.321-4.12c9.593-1.945,9.593-15.656,0-17.6l-20.321-4.12
		c-20.024-4.06-35.676-19.711-39.735-39.735l-4.12-20.321c-1.945-9.593-15.656-9.593-17.6,0l-4.12,20.321
		c-4.06,20.024-19.711,35.676-39.735,39.735l-20.321,4.12c-9.593,1.945-9.593,15.656,0,17.6l20.321,4.12
		c20.024,4.059,35.676,19.711,39.735,39.736l4.12,20.321c1.945,9.593,15.656,9.593,17.6,0l4.12-20.321
		C431.646,323.686,447.297,308.035,467.322,303.976z"/>
	<path style="fill:#F9D366;" d="M366.314,400.097l6.352-1.288c8.383-1.7,8.383-13.68,0-15.38l-6.352-1.288
		c-16.002-3.244-28.508-15.75-31.751-31.751l-1.288-6.352c-1.7-8.383-13.68-8.383-15.38,0l-1.288,6.352
		c-3.244,16.002-15.751,28.508-31.751,31.751l-6.352,1.288c-8.383,1.7-8.383,13.68,0,15.38l6.352,1.288
		c16.002,3.244,28.508,15.75,31.751,31.751l1.288,6.352c1.7,8.383,13.68,8.383,15.38,0l1.288-6.352
		C337.806,415.847,350.313,403.342,366.314,400.097z"/>
</g>
<path style="fill:#81DBBA;" d="M252.8,138.74c-32.212,0-62.748-6.301-83.78-17.287c-3.836-2.004-5.322-6.739-3.318-10.574
	c2.003-3.836,6.739-5.323,10.574-3.318c18.865,9.854,46.756,15.506,76.522,15.506c29.77,0,57.664-5.654,76.526-15.512
	c3.836-2.005,8.57-0.52,10.575,3.315c2.004,3.836,0.52,8.57-3.315,10.575C315.556,132.436,285.017,138.74,252.8,138.74z"/>
<g>
</g>
<g>
</g>
<g>
</g>
<g>
</g>
<g>
</g>
<g>
</g>
<g>
</g>
<g>
</g>
<g>
</g>
<g>
</g>
<g>
</g>
<g>
</g>
<g>
</g>
<g>
</g>
<g>
</g>
</svg>
