<svg id="Capa_1" enable-background="new 0 0 511 511" height="512" viewBox="0 0 511 511" width="512" xmlns="http://www.w3.org/2000/svg"><g id="Outline_1_"><g><path d="m503.5 191.5-496 256v-128l496-256z" fill="#ff9c62"/><g><path d="m7.5 63.5h496v128h-496z" fill="#ffed77"/><path d="m7.5 159.5h496v32h-496z" fill="#ffe11c"/><path d="m47.5 127.5c0-17.673 14.327-32 32-32v-32h-72v128h72v-32c-17.673 0-32-14.327-32-32z" fill="#bfabb8"/><g><path d="m7.5 159.5h72v32h-72z" fill="#9f8194"/></g></g><g><path d="m7.5 319.5h496v128h-496z" fill="#ffed77"/><path d="m7.5 415.5h496v32h-496z" fill="#ffe11c"/></g></g><path d="m511 63.5c0-4.142-3.358-7.5-7.5-7.5h-496c-4.142 0-7.5 3.358-7.5 7.5v128c0 4.142 3.358 7.5 7.5 7.5h217.116l-220.556 113.835c-2.465 1.274-4.06 3.889-4.06 6.665v128c0 4.142 3.358 7.5 7.5 7.5h372.478c4.142 0 7.5-3.358 7.5-7.5s-3.358-7.5-7.5-7.5h-364.978v-113h41v24.5c0 4.142 3.358 7.5 7.5 7.5s7.5-3.358 7.5-7.5v-24.5h81v56.5c0 4.142 3.358 7.5 7.5 7.5s7.5-3.358 7.5-7.5v-56.5h81v24.5c0 4.142 3.358 7.5 7.5 7.5s7.5-3.358 7.5-7.5v-24.5h81v56.5c0 4.142 3.358 7.5 7.5 7.5s7.5-3.358 7.5-7.5v-56.5h81v24.5c0 4.142 3.358 7.5 7.5 7.5s7.5-3.358 7.5-7.5v-24.5h41v113h-79.5c-4.142 0-7.5 3.358-7.5 7.5s3.358 7.5 7.5 7.5h87c4.142 0 7.5-3.358 7.5-7.5v-128c0-4.142-3.358-7.5-7.5-7.5h-217.116l220.556-113.835c2.462-1.277 4.06-3.888 4.06-6.665zm-15 120.5h-409v-24.5c0-4.142-3.358-7.5-7.5-7.5-13.509 0-24.5-10.991-24.5-24.5s10.991-24.5 24.5-24.5c4.142 0 7.5-3.358 7.5-7.5v-24.5h65v24.5c0 4.142 3.358 7.5 7.5 7.5s7.5-3.358 7.5-7.5v-24.5h81v56.5c0 4.142 3.358 7.5 7.5 7.5s7.5-3.358 7.5-7.5v-56.5h81v24.5c0 4.142 3.358 7.5 7.5 7.5s7.5-3.358 7.5-7.5v-24.5h81v56.5c0 4.142 3.358 7.5 7.5 7.5s7.5-3.358 7.5-7.5v-56.5h41zm-481 0v-113h57v17.714c-18.207 3.513-32 19.568-32 38.786s13.793 35.273 32 38.786v17.714zm457.616 15s-217.083 112.272-217.699 113h-216.533l218.938-113z"/></g></svg>