<?xml version="1.0" encoding="iso-8859-1"?>
<!-- Generator: Adobe Illustrator 19.0.0, SVG Export Plug-In . SVG Version: 6.00 Build 0)  -->
<svg version="1.1" id="Layer_1" xmlns="http://www.w3.org/2000/svg" xmlns:xlink="http://www.w3.org/1999/xlink" x="0px" y="0px"
	 viewBox="0 0 512 512" style="enable-background:new 0 0 512 512;" xml:space="preserve">
<path style="fill:#FF3F62;" d="M256,0C114.842,0,0.001,114.838,0.001,255.995C0.001,397.156,114.842,512,256,512
	c12.853,0,23.273-10.42,23.273-23.273c0-12.853-10.42-23.273-23.273-23.273c-115.494,0-209.454-93.964-209.454-209.46
	C46.545,140.503,140.506,46.545,256,46.545s209.454,93.958,209.454,209.449v58.193c0,19.25-15.664,34.909-34.915,34.909
	c-19.248,0-34.907-15.659-34.907-34.909v-58.193c0-76.997-62.638-139.636-139.631-139.636c-76.995,0-139.634,62.639-139.634,139.636
	c0,77.001,62.639,139.647,139.634,139.647c40.226,0,76.527-17.107,102.03-44.42c13.507,26.342,40.927,44.42,72.508,44.42
	c44.918,0,81.461-36.54,81.461-81.454v-58.193C511.998,114.838,397.158,0,256,0z M256,349.096c-51.33,0-93.089-41.765-93.089-93.102
	c0-51.332,41.759-93.091,93.089-93.091c51.329,0,93.086,41.759,93.086,93.091C349.086,307.331,307.327,349.096,256,349.096z"/>
<g>
</g>
<g>
</g>
<g>
</g>
<g>
</g>
<g>
</g>
<g>
</g>
<g>
</g>
<g>
</g>
<g>
</g>
<g>
</g>
<g>
</g>
<g>
</g>
<g>
</g>
<g>
</g>
<g>
</g>
</svg>
