<?xml version="1.0" encoding="iso-8859-1"?>
<!-- Generator: Adobe Illustrator 19.0.0, SVG Export Plug-In . SVG Version: 6.00 Build 0)  -->
<svg version="1.1" id="Capa_1" xmlns="http://www.w3.org/2000/svg" xmlns:xlink="http://www.w3.org/1999/xlink" x="0px" y="0px"
	 viewBox="0 0 512 512" style="enable-background:new 0 0 512 512;" xml:space="preserve">
<path style="fill:#F0F0FA;" d="M416.55,160.009l-56.351,28.513l-121.918-17.054l-29.945-7.182L83.162,145.742l39.062-32.972
	l-38.59-36.907l-55.063,49.642c-15.516,13.988-11.621,39.293,7.383,47.968l106.149,48.458l0,0l14.356,59.298l75.105-0.008
	l3.031-4.022l30.2-40.082h117.177c4.686,0,9.276-1.321,13.246-3.81l57.797-35.852L416.55,160.009z"/>
<polygon style="fill:#BEBEBE;" points="211.829,221.931 192.094,161.88 243.734,172.231 "/>
<path style="fill:#D7D7E6;" d="M231.563,281.222l-75.105,0.008l-69.549-35.132c-5.321-2.688-11.199-4.089-17.161-4.089l0,0
	c-23.203,0-41.007,20.582-37.665,43.543l15.103,103.784h73.212l-20.058-71.206l20.058,34.224h95.087l204.732,94.868l24.668-62.174
	L231.563,281.222z"/>
<g>
	<path style="fill:#FFCDAC;" d="M218.2,168.58L218.2,168.58c23.073,7.072,47.51-5.897,54.582-28.969l2.329-7.596
		c7.072-23.073-5.898-47.51-28.969-54.582l0,0c-23.073-7.073-47.51,5.898-54.582,28.969l-2.329,7.596
		C182.157,137.069,195.127,161.506,218.2,168.58z"/>
	<path style="fill:#FFCDAC;" d="M436.046,137.023l-7.887,7.887c-7.412,7.412-7.412,19.429,0,26.842l13.246,13.246
		c7.412,7.412,19.429,7.412,26.842,0l7.887-7.887c7.412-7.412,7.412-19.429,0-26.842l-13.246-13.246
		C455.475,129.611,443.458,129.611,436.046,137.023z"/>
	<path style="fill:#FFCDAC;" d="M104.297,52.63l-7.887,7.887c-7.412,7.412-7.412,19.429,0,26.842l13.246,13.246
		c7.412,7.412,19.429,7.412,26.842,0l7.887-7.887c7.412-7.412,7.412-19.429,0-26.842L131.139,52.63
		C123.727,45.217,111.71,45.217,104.297,52.63z"/>
</g>
<g>
	<path style="fill:#BEBEBE;" d="M109.669,389.336v41.807c0,8.881-7.199,16.079-16.08,16.079H9.989l0,0
		c0-23.681,19.198-42.879,42.879-42.879v-15.007H109.669z"/>
	<path style="fill:#BEBEBE;" d="M489.571,420.525l-48.129-22.971l-20.174,42.268l48.129,22.971
		c10.876,5.191,23.903,0.582,29.094-10.295l1.375-2.879C505.057,438.742,500.448,425.716,489.571,420.525z"/>
</g>
<path d="M335.219,328.051c-1.857,1.858-2.917,4.434-2.917,7.063c0,2.627,1.06,5.204,2.917,7.062
	c1.868,1.858,4.445,2.928,7.072,2.928s5.195-1.069,7.063-2.928c1.857-1.857,2.927-4.434,2.927-7.062
	c0-2.628-1.069-5.204-2.927-7.063c-1.868-1.858-4.435-2.927-7.063-2.927S337.087,326.193,335.219,328.051z"/>
<path d="M510.161,429.607c-2.835-8.011-8.62-14.438-16.289-18.098l0.001,0.001l-40.981-19.559l1.277-3.22
	c1.928-4.857-0.215-10.379-4.914-12.666l-69.216-33.688c-4.963-2.417-10.939-0.35-13.353,4.61
	c-2.414,4.961-0.351,10.938,4.61,13.353l60.884,29.634l-18.757,43.09l-193.741-89.776c-1.316-0.609-2.749-0.926-4.2-0.926h-95.087
	c-0.953,0-1.871,0.142-2.744,0.391l-7.699-27.332c-1.495-5.309-7.008-8.408-12.323-6.907c-5.31,1.495-8.403,7.014-6.907,12.323
	l16.481,58.508H55.828l-13.859-95.234c-1.175-8.071,1.213-16.239,6.549-22.408c5.336-6.168,13.075-9.707,21.231-9.707
	c4.375,0,8.752,1.043,12.657,3.016l69.549,35.132c0.06,0.03,0.112,0.049,0.169,0.075c1.322,0.637,2.793,0.998,4.336,0.998
	l72.805-0.008l71.976,35.032c1.408,0.686,2.897,1.01,4.364,1.01c3.702,0,7.26-2.067,8.988-5.62
	c2.414-4.961,0.351-10.938-4.61-13.353l-63.142-30.733l22.936-30.44h112.196c6.571,0,12.987-1.846,18.51-5.31l57.797-35.852
	c2.355-1.461,3.974-3.831,4.514-6.527c4.586-1.305,8.913-3.753,12.517-7.356l7.888-7.888c11.295-11.295,11.295-29.674,0-40.969
	l-13.247-13.247c-11.295-11.294-29.674-11.296-40.97,0l-7.888,7.888c-3.622,3.623-6.077,7.977-7.376,12.59
	c-0.57,0.169-1.133,0.385-1.678,0.66l-53.558,27.099l-90.318-12.634c6.552-6.263,11.439-14.12,14.168-23.024l2.329-7.596
	c8.677-28.302-7.291-58.385-35.592-67.061c-13.71-4.203-28.238-2.815-40.902,3.908c-12.667,6.722-21.956,17.975-26.159,31.684
	l-2.329,7.596c-4.156,13.556-2.645,27.515,3.154,39.34l-76.319-11.306l22.154-18.699c1.738-1.467,2.897-3.474,3.338-5.673
	c4.228-1.363,8.205-3.711,11.556-7.063l7.888-7.888c11.295-11.295,11.295-29.675,0-40.97l-13.247-13.246
	c-11.295-11.295-29.675-11.293-40.97,0l-7.888,7.888c-3.615,3.615-6.067,7.958-7.367,12.559c-1.818,0.305-3.571,1.114-5.035,2.432
	l-55.062,49.644c-9.794,8.83-14.443,21.883-12.437,34.916c2.007,13.033,10.366,24.082,22.362,29.558L133.536,229l8.124,33.561
	L91.414,237.18c-6.684-3.376-14.175-5.162-21.665-5.162c-13.962,0-27.207,6.057-36.341,16.615
	c-9.134,10.559-13.219,24.539-11.209,38.355l15.103,103.785c0.293,2.012,1.179,3.804,2.456,5.226
	C16.927,401.848,0,422.594,0,447.222c0,5.516,4.473,9.989,9.989,9.989h196.558c5.516,0,9.989-4.473,9.989-9.989
	s-4.473-9.989-9.989-9.989h-87.615c0.47-1.955,0.726-3.993,0.726-6.091v-31.817h0.74c3.129,0,6.076-1.465,7.965-3.959
	c1.888-2.494,2.499-5.728,1.65-8.739l-6.841-24.286h90.111l202.734,93.943c1.33,0.616,2.764,0.926,4.2,0.926
	c1.255,0,2.512-0.236,3.701-0.711c1.43-0.57,2.683-1.464,3.694-2.581l37.482,17.889c4.408,2.104,9.065,3.101,13.654,3.101
	c11.884,0,23.307-6.684,28.758-18.106l1.376-2.881C512.541,446.253,512.996,437.618,510.161,429.607z M226.669,180.324
	l-11.848,18.457l-7.95-24.037c2.661,1.338,5.46,2.483,8.401,3.384C219.028,179.281,222.846,180.006,226.669,180.324z
	 M435.222,151.973l7.888-7.888c1.752-1.753,4.055-2.629,6.356-2.629c2.304,0,4.605,0.876,6.357,2.629l13.247,13.247
	c3.505,3.505,3.505,9.209,0,12.715l-7.888,7.887c-1.697,1.698-3.956,2.633-6.357,2.633c-2.4,0-4.659-0.935-6.356-2.633
	l-13.247-13.246C431.716,161.182,431.716,155.478,435.222,151.973z M358.814,198.415c2.019,0.285,4.076-0.059,5.894-0.979
	l49.803-25.2l22.672,23.283l-47.277,29.326c-2.38,1.493-5.125,2.284-7.936,2.284H264.794c-3.137,0-6.092,1.473-7.978,3.978
	l-21.756,28.875l-12.168-36.792l25.793-40.178L358.814,198.415z M198.78,116.924l2.329-7.596
	c2.639-8.608,8.471-15.672,16.424-19.893c4.937-2.621,10.325-3.95,15.759-3.95c3.319,0,6.657,0.496,9.921,1.496
	c17.768,5.447,27.793,24.335,22.346,42.103l-2.329,7.596c-2.639,8.608-8.471,15.672-16.424,19.893
	c-7.952,4.221-17.07,5.094-25.681,2.453C203.358,153.581,193.334,134.694,198.78,116.924z M103.473,67.581l7.888-7.888
	c1.752-1.753,4.055-2.629,6.356-2.629c2.304,0,4.605,0.876,6.357,2.629l13.247,13.246c3.506,3.505,3.506,9.209,0,12.715
	l-7.888,7.888c-3.504,3.506-9.21,3.506-12.715,0l-13.247-13.246C99.967,76.79,99.967,71.086,103.473,67.581z M40.102,164.386
	c-5.941-2.711-9.917-7.969-10.911-14.423s1.219-12.666,6.069-17.038l48.173-43.431l23.854,22.813l-30.568,25.802
	c-3.001,2.532-4.239,6.588-3.166,10.365c1.074,3.777,4.261,6.575,8.144,7.15l102.845,15.236l33.197,100.374l-53.421,0.005
	l-20.593-85.068c-1.299-5.361-6.692-8.655-12.059-7.358c-5.362,1.298-8.657,6.697-7.359,12.059l3.254,13.439L40.102,164.386z
	 M99.678,431.143c0,3.357-2.731,6.091-6.09,6.091h-72.06c4.239-13.266,16.684-22.9,31.339-22.9c5.516,0,9.989-4.473,9.989-9.989
	c0-1.831-0.501-3.542-1.362-5.018h38.184v31.816H99.678z M490.851,445.315l-1.375,2.88c-2.811,5.889-9.888,8.392-15.777,5.583
	l-38.12-18.193l6.015-15.158l4.56-9.554l39.112,18.668l0.001,0.001c2.852,1.361,5.004,3.752,6.058,6.731
	C492.381,439.253,492.212,442.464,490.851,445.315z"/>
<path d="M244.507,437.236c-2.627,0-5.204,1.06-7.063,2.927c-1.858,1.858-2.927,4.426-2.927,7.063c0,2.627,1.068,5.204,2.927,7.063
	c1.868,1.857,4.435,2.927,7.063,2.927s5.204-1.069,7.062-2.927c1.858-1.858,2.928-4.435,2.928-7.063
	c0-2.637-1.069-5.204-2.928-7.063C249.711,438.296,247.134,437.236,244.507,437.236z"/>
<g>
</g>
<g>
</g>
<g>
</g>
<g>
</g>
<g>
</g>
<g>
</g>
<g>
</g>
<g>
</g>
<g>
</g>
<g>
</g>
<g>
</g>
<g>
</g>
<g>
</g>
<g>
</g>
<g>
</g>
</svg>
