<svg viewBox="0 0 416.99 325.41" xmlns="http://www.w3.org/2000/svg"><rect fill="#fff" height="139.16" rx="58.5" width="404.39" x="6.59" y="6.59"/><path d="m407.88 48a69.24 69.24 0 0 0 -47.45-18.8h-265.23a69.51 69.51 0 0 0 -64.1 96.57 69.57 69.57 0 0 1 47.45-120.36h265.24a69.8 69.8 0 0 1 64.09 42.59z" fill="#e1d2d5"/><path d="m351.89 151.16h-287.39a64.57 64.57 0 0 1 -64.5-64.5v-22.16a64.57 64.57 0 0 1 64.5-64.5h287.39a64.57 64.57 0 0 1 64.5 64.5v22.16a64.57 64.57 0 0 1 -64.5 64.5zm-287.39-139.16a52.56 52.56 0 0 0 -52.5 52.5v22.16a52.56 52.56 0 0 0 52.5 52.5h287.39a52.56 52.56 0 0 0 52.5-52.5v-22.16a52.56 52.56 0 0 0 -52.5-52.5z" fill="#426572"/><circle cx="105.31" cy="75.58" fill="#32caf8" r="40.44"/><path d="m144.56 75.58a40.44 40.44 0 0 1 -71.19 26.27 40.45 40.45 0 0 0 49.63-62.06 40.44 40.44 0 0 1 21.56 35.79z" fill="#00a3eb"/><path d="m105.31 122a46.44 46.44 0 1 1 46.44-46.44 46.49 46.49 0 0 1 -46.44 46.44zm0-80.88a34.44 34.44 0 1 0 34.44 34.44 34.48 34.48 0 0 0 -34.44-34.42z" fill="#426572"/><rect fill="#32caf8" height="139.16" rx="58.5" width="404.39" x="6.59" y="180.25"/><path d="m407.88 222.84a69.24 69.24 0 0 0 -47.44-18.84h-265.24a69.51 69.51 0 0 0 -64.1 96.57 69.57 69.57 0 0 1 47.45-120.32h265.24a69.8 69.8 0 0 1 64.09 42.59z" fill="#00a3eb"/><path d="m352.49 325.41h-287.4a64.57 64.57 0 0 1 -64.5-64.5v-22.16a64.57 64.57 0 0 1 64.5-64.5h287.4a64.57 64.57 0 0 1 64.5 64.5v22.16a64.57 64.57 0 0 1 -64.5 64.5zm-287.4-139.16a52.56 52.56 0 0 0 -52.5 52.5v22.16a52.56 52.56 0 0 0 52.5 52.5h287.4a52.56 52.56 0 0 0 52.5-52.5v-22.16a52.56 52.56 0 0 0 -52.5-52.5z" fill="#426572"/><circle cx="309.89" cy="250.42" fill="#fff" r="40.44"/><path d="m349.14 250.42a40.44 40.44 0 0 1 -71.14 26.27 40.45 40.45 0 0 0 49.6-62.06 40.44 40.44 0 0 1 21.54 35.79z" fill="#e1d2d5"/><path d="m309.89 296.86a46.44 46.44 0 1 1 46.44-46.44 46.49 46.49 0 0 1 -46.44 46.44zm0-80.88a34.44 34.44 0 1 0 34.44 34.44 34.48 34.48 0 0 0 -34.44-34.42z" fill="#426572"/></svg>