<svg id="Capa_1" enable-background="new 0 0 497 497" height="512" viewBox="0 0 497 497" width="512" xmlns="http://www.w3.org/2000/svg"><g><path d="m131.041 421.577h-.343c-8.254 0-14.946-6.691-14.946-14.946v-33.969c0-8.254 6.691-14.946 14.946-14.946h.343c8.254 0 14.946 6.691 14.946 14.946v33.969c0 8.255-6.692 14.946-14.946 14.946z" fill="#99e6fc"/><path d="m209.462 345.842h-.343c-8.254 0-14.946-6.691-14.946-14.946v-14.751c0-8.254 6.691-14.946 14.946-14.946h.343c8.254 0 14.946 6.691 14.946 14.946v14.751c-.001 8.254-6.692 14.946-14.946 14.946z" fill="#c8effe"/><path d="m209.462 497h-.343c-8.254 0-14.946-6.691-14.946-14.946v-87.157c0-8.254 6.691-14.946 14.946-14.946h.343c8.254 0 14.946 6.691 14.946 14.946v87.157c-.001 8.255-6.692 14.946-14.946 14.946z" fill="#fedf30"/><path d="m287.883 483.973h-.343c-8.254 0-14.946-6.691-14.946-14.946v-4.508c0-8.254 6.691-14.946 14.946-14.946h.343c8.254 0 14.946 6.691 14.946 14.946v4.508c-.001 8.255-6.692 14.946-14.946 14.946z" fill="#c8effe"/><path d="m209.462 301.2h-.343c-2.536 0-4.922.636-7.015 1.751 4.717 2.513 7.931 7.476 7.931 13.194v14.751c0 5.718-3.214 10.681-7.931 13.194 2.092 1.115 4.478 1.751 7.015 1.751h.343c8.254 0 14.946-6.691 14.946-14.946v-14.751c-.001-8.253-6.692-14.944-14.946-14.944z" fill="#99e6fc"/><path d="m287.883 449.574h-.343c-2.536 0-4.922.636-7.015 1.751 4.717 2.513 7.931 7.476 7.931 13.194v4.508c0 5.718-3.214 10.681-7.931 13.194 2.092 1.115 4.478 1.751 7.015 1.751h.343c8.254 0 14.946-6.691 14.946-14.946v-4.508c-.001-8.252-6.692-14.944-14.946-14.944z" fill="#99e6fc"/><path d="m366.304 444.574h-.343c-8.254 0-14.946-6.691-14.946-14.946v-54.198c0-8.254 6.691-14.946 14.946-14.946h.343c8.254 0 14.946 6.691 14.946 14.946v54.199c-.001 8.254-6.692 14.945-14.946 14.945z" fill="#fedf30"/><path d="m381.88 328.32-79.05-51.33-30.24-19.63-11.72-7.61c-.26-.17-.52-.34-.77-.5-3.98-2.53-7.58-3.77-11.42-3.68-3.76.08-7.76 1.46-12.56 4.18l-120.99 78.57c-17.2 6.02-33.56-.91-42.63-13.25-7.96-10.82-10.32-25.8-2.75-39.87l133.47-248.14c9.74-18.11 27.61-27.12 45.46-27.06 17.73.06 35.44 9.07 45.11 27.06l133.46 248.14c16.2 30.11-13.09 64.41-45.37 53.12z" fill="#0593fc"/><path d="m260.1 249.25c-3.98-2.53-7.58-3.77-11.42-3.68-3.76.08-7.76 1.46-12.56 4.18l-120.99 78.57c-17.2 6.02-33.56-.91-42.63-13.25 5.88.99 12.23.57 18.69-1.69l110.56-71.81c3.43-2.22 4.01-7 1.23-9.98l-6.763-7.236c-.634-.678-.44-1.777.383-2.207 4.094-2.137 7.611-3.226 10.94-3.297 4.08-.1 7.9 1.32 12.19 4.18z" fill="#0182fc"/><g><g><path d="m427.25 275.196-133.465-248.138c-9.67-17.984-27.371-26.996-45.102-27.057-4.909-.017-9.813.678-14.555 2.034 12.501 3.576 23.841 11.899 30.897 25.023l133.465 248.138c11.293 20.986.485 44-18.03 52.205l1.415.919c32.287 11.287 61.579-23.012 45.375-53.124z" fill="#0182fc"/></g></g><path d="m287.883 414.589h-.343c-8.254 0-14.946-6.691-14.946-14.946v-176.291c0-8.254 6.691-14.946 14.946-14.946h.343c8.254 0 14.946 6.691 14.946 14.946v176.291c-.001 8.254-6.692 14.946-14.946 14.946z" fill="#99e6fc"/><path d="m131.041 357.717h-.343c-2.952 0-5.697.868-8.015 2.345 4.162 2.653 6.931 7.299 6.931 12.6v33.969c0 5.302-2.768 9.947-6.931 12.601 2.318 1.478 5.062 2.345 8.015 2.345h.343c8.254 0 14.946-6.691 14.946-14.946v-33.969c0-8.253-6.692-14.945-14.946-14.945z" fill="#62dbfb"/><path d="m209.462 379.952h-.343c-2.952 0-5.697.868-8.015 2.345 4.162 2.653 6.931 7.299 6.931 12.6v87.157c0 5.302-2.768 9.947-6.931 12.6 2.318 1.478 5.062 2.345 8.015 2.345h.343c8.254 0 14.946-6.691 14.946-14.946v-87.157c-.001-8.253-6.692-14.944-14.946-14.944z" fill="#fac600"/><path d="m366.303 360.484h-.343c-2.952 0-5.697.867-8.015 2.345 4.162 2.653 6.931 7.299 6.931 12.601v54.199c0 5.302-2.768 9.947-6.931 12.6 2.318 1.478 5.062 2.345 8.015 2.345h.343c8.254 0 14.946-6.691 14.946-14.946v-54.198c0-8.254-6.691-14.946-14.946-14.946z" fill="#fac600"/><path d="m287.883 208.406h-.343c-2.952 0-5.697.867-8.015 2.345 4.162 2.653 6.931 7.299 6.931 12.601v176.291c0 5.302-2.768 9.947-6.931 12.6 2.318 1.478 5.062 2.345 8.015 2.345h.343c8.254 0 14.946-6.691 14.946-14.946v-176.29c-.001-8.255-6.692-14.946-14.946-14.946z" fill="#62dbfb"/></g></svg>